<svg height="137" viewBox="0 0 144 137" width="144" xmlns="http://www.w3.org/2000/svg" xmlns:xlink="http://www.w3.org/1999/xlink"><linearGradient id="a"><stop offset="0" stop-color="#808080" stop-opacity=".25"/><stop offset=".54" stop-color="#808080" stop-opacity=".12"/><stop offset="1" stop-color="#808080" stop-opacity=".1"/></linearGradient><linearGradient id="b" x1="49.998816%" x2="49.998816%" xlink:href="#a" y1="100%" y2="0%"/><linearGradient id="c" x1="50%" x2="50%" xlink:href="#a" y1="100%" y2="0%"/><linearGradient id="d" x1="60.760855%" x2="39.298735%" xlink:href="#a" y1="98.880364%" y2="1.029485%"/><linearGradient id="e" x1="50%" x2="50%" xlink:href="#a" y1="99.914442%" y2="-.085558%"/><g fill="none"><path d="m22.3806757 14.5484649 76.6518882-.0018175-.0025112 105.9192306-76.6518881.001818z" fill="#e0e0e0" transform="matrix(.97774664 -.20978922 .20978922 .97774664 -12.811378 14.237592)"/><path d="m10.0132138 6.72480116 74.0584504-.03329732-.0460059 102.52885616-74.05845039.033297z" fill="url(#b)" opacity=".5" transform="matrix(.97774664 -.20978922 .20978922 .97774664 2.884318 21.154255)"/><path d="m24.5396456 17.1009012 72.175763-.0017113-.0023726 100.0779031-72.175763.001711z" fill="#fafafa" transform="matrix(.97774664 -.20978922 .20978922 .97774664 -12.735897 14.212821)"/><path d="m32.3194453 13.8554014 35.8054927-.000849-.0002056 8.6742837-35.8054928.0008489z" fill="url(#c)" transform="matrix(.97774664 -.20978922 .20978922 .97774664 -2.6989 10.940888)"/><path d="m47.9294663 6.10743342c-2.6980887.56693139-4.4051856 3.21660775-3.8116411 5.91766758.5935444 2.7010599 3.2601175 4.434397 5.9529535 3.8674656s4.4051856-3.2166078 3.8116411-5.91766763c-.5935445-2.70105987-3.2548649-4.43439695-5.9529535-3.86746555zm1.69309 7.72465438c-1.1663378.272105-2.3850543-.1729774-3.0837692-1.1262105-.6987148-.9532332-.7385961-2.2252134-.1009132-3.21854452.6376828-.99333114 1.8262247-1.51064217 3.0074171-1.30897369 1.1811923.20166849 2.1203368 1.08224575 2.3763564 2.22816141.174668.7396688.0408414 1.5169356-.3718697 2.1598238s-1.0702825 1.0983977-1.8272214 1.2657435z" fill="url(#d)"/><path d="m32.578357 13.4958646 35.0512868-.0008311-.0001966 8.2918784-35.0512867.0008311z" fill="#1c2c49" transform="matrix(.97774664 -.20978922 .20978922 .97774664 -2.585993 10.903838)"/><path d="m47.9509428 5.11134459c-2.6993006.57942139-4.4178913 3.23752396-3.8386336 5.93712151.5792578 2.6995975 3.2370235 4.418466 5.9363691 3.8392541s4.4181425-3.237181 3.8390942-5.93682352c-.2780975-1.29654819-1.0598415-2.4294914-2.1732329-3.14955994s-2.4672128-.9682689-3.7635968-.68999215zm1.6537928 7.71490421c-1.1410309.2448587-2.3171888-.2218359-2.979991-1.1824483-.6628022-.9606123-.6817087-2.22594824-.0479029-3.20593834.6338059-.97999009 1.7954951-1.48162376 2.9433322-1.27097207 1.1478372.21065169 2.0557539 1.09210054 2.3003577 2.23329683.3339385 1.55798688-.6580349 3.09177528-2.215796 3.42606188z" fill="#1c2c49"/><path d="m45 20h77v106h-77z" fill="#e0e0e0"/><path d="m.048983.020959h73.868794v101.896952h-73.868794z" fill="url(#b)" opacity=".5" transform="translate(47 22)"/><path d="m48 23h72v100h-72z" fill="#fff"/><path d="m66 19h36v9h-36z" fill="url(#c)"/><path d="m84 10c-2.7610371 0-5 2.238193-5 5s2.2389629 5 5 5 5-2.238193 5-5-2.2389629-5-5-5zm0 7.8850103c-1.2006468.02783-2.2990108-.6571609-2.7783565-1.7327123s-.244227-2.3275025.5947424-3.1668611c.8389693-.8393587 2.1147359-1.0989941 3.2271035-.6567584 1.1123676.4422356 1.8398446 1.4982857 1.8401826 2.6713215.0116875 1.5691704-1.277187 2.8525245-2.883672 2.871321z" fill="url(#e)"/><path d="m66 18h35v8h-35z" fill="#1c2c49"/><path d="m84.0000731 10c-2.0222817 0-3.8454365 1.2181931-4.6193302 3.0865377-.7738937 1.8683447-.3461211 4.0189024 1.0838479 5.4488715 1.4299691 1.429969 3.5805268 1.8577416 5.4488715 1.0838479 1.8683446-.7738937 3.0865377-2.5970485 3.0865377-4.6193302 0-2.7613834-2.2385435-4.9999269-4.9999269-4.9999269zm0 7.8856706c-1.5923516-.0019805-2.8821545-1.2933938-2.8821545-2.8857466s1.2898133-2.8837615 2.8821648-2.8857386c1.5923516-.0019726 2.8853612 1.286233 2.8893137 2.8785809-.0004744.7656573-.3052083 1.4997405-.8471132 2.0406383-.541905.5408977-1.2765539.8442653-2.0422108.8433152z" fill="#1c2c49"/><g fill="#47e6b1" opacity=".5" transform="translate(1 129)"><path d="m1.685455.009091h1v3.878182h-1z"/><path d="m1.68636364.01h.68363636v3.87818182h-.68363636z" transform="matrix(0 1 -1 0 3.977273 -.079091)"/></g><g fill="#47e6b1" opacity=".5" transform="translate(78)"><path d="m1.650435 0h1v3.878182h-1z"/><path d="m1.63644269.08339921h.68363636v3.70956522h-.68363636z" transform="matrix(0 1 -1 0 3.916443 -.040079)"/></g><path d="m135.755203 135.525033c-.383874-.167105-.581505-.595433-.459526-.995938.00951-.029592.015511-.060198.01788-.09119.010955-.181829-.0985-.349367-.269413-.412378-.170914-.063012-.362927-.006618-.472622.138808-.018594.024908-.034197.051914-.046489.080462-.167105.383874-.595433.581505-.995938.459526-.029592-.00951-.060198-.015511-.09119-.01788-.181829-.010955-.349367.0985-.412378.269413-.063012.170914-.006618.362927.138808.472622.024908.018594.051914.034197.080462.046489.383874.167105.581505.595433.459526.995938-.00951.029592-.015511.060198-.01788.09119-.010955.181829.0985.349367.269413.412378.170914.063012.362927.006618.472622-.138808.018594-.024908.034197-.051914.046489-.080462.167105-.383874.595433-.581505.995938-.459526.029592.00951.060198.015511.09119.01788.181829.010955.349367-.0985.412378-.269413.063012-.170914.006618-.362927-.138808-.472622-.024908-.018594-.051914-.034197-.080462-.046489z" fill="#4d8af0" opacity=".5"/><path d="m23.7552029 99.5250325c-.383874-.1671042-.5815048-.5954324-.4595259-.9959373.0095099-.0295917.0155111-.0601981.0178804-.0911899.010955-.1818293-.0985001-.3493668-.2694136-.4123783-.1709136-.0630116-.3629265-.0066176-.4726223.1388084-.0185931.0249079-.0341963.0519135-.046489.0804617-.1671042.383874-.5954324.5815048-.9959373.4595259-.0295917-.0095099-.0601981-.0155111-.0911899-.0178804-.1818293-.010955-.3493668.0985001-.4123783.2694136-.0630116.1709136-.0066176.3629265.1388084.4726223.0249079.0185931.0519135.0341963.0804617.046489.383874.1671042.5815048.5954325.4595259.9959375-.0095099.029592-.0155111.060198-.0178804.09119-.010955.181829.0985001.349367.2694136.412378.1709136.063012.3629265.006618.4726223-.138808.0185931-.024908.0341963-.051914.046489-.080462.1671042-.383874.5954324-.581505.9959373-.459526.0295917.00951.0601981.015511.0911899.01788.1818293.010955.3493668-.0985.4123783-.269413.0630116-.1709138.0066176-.3629267-.1388084-.4726225-.0249079-.0185931-.0519135-.0341963-.0804617-.046489z" fill="#fdd835" opacity=".5"/><path d="m116.755203 11.5250325c-.383874-.1671042-.581505-.5954324-.459526-.9959373.00951-.0295917.015511-.0601981.01788-.0911899.010955-.1818293-.0985-.3493668-.269413-.4123783-.170914-.06301155-.362927-.0066176-.472622.1388084-.018594.0249079-.034197.0519135-.046489.0804617-.167105.383874-.595433.5815048-.995938.4595259-.029592-.0095099-.060198-.0155111-.09119-.0178804-.181829-.010955-.349367.0985001-.412378.2694136-.063012.1709136-.006618.3629265.138808.4726223.024908.0185931.051914.0341963.080462.046489.383874.1671042.581505.5954324.459526.9959373-.00951.0295917-.015511.0601981-.01788.0911899-.010955.1818293.0985.3493668.269413.4123783.170914.0630116.362927.0066176.472622-.1388084.018594-.0249079.034197-.0519135.046489-.0804617.167105-.383874.595433-.5815048.995938-.4595259.029592.0095099.060198.0155111.09119.0178804.181829.010955.349367-.0985001.412378-.2694136.063012-.1709136.006618-.3629265-.138808-.4726223-.024908-.0185931-.051914-.0341963-.080462-.046489z" fill="#fdd835" opacity=".5"/><g fill="#f55f44"><circle cx="142.5" cy="55.5" opacity=".5" r="1.5"/><circle cx="40.5" cy="130.5" opacity=".5" r="1.5"/><circle cx="128.5" cy="83.5" opacity=".5" r="1.5"/></g><circle cx="15.5" cy="16.5" fill="#4d8af0" opacity=".5" r="1.5"/><circle cx="1.5" cy="52.5" fill="#47e6b1" opacity=".5" r="1.5"/></g></svg>