<svg height="485pt" viewBox="-42 0 485 485.656" width="485pt" xmlns="http://www.w3.org/2000/svg"><path d="m304.328125 229.65625c0-17.671875-14.328125-32-32-32-.28125 0-.542969.070312-.816406.078125.535156-2.605469.816406-5.308594.816406-8.078125 0-22.089844-17.914063-40-40-40-9.335937 0-17.808594 3.328125-24.617187 8.6875-3.527344-23.03125-23.367188-40.6875-47.382813-40.6875s-43.855469 17.65625-47.382813 40.6875c-6.808593-5.359375-15.28125-8.6875-24.617187-8.6875-22.089844 0-40 17.910156-40 40 0 2.769531.28125 5.472656.816406 8.078125-.273437-.007813-.535156-.078125-.816406-.078125-17.671875 0-32 14.328125-32 32" fill="#b8cbd9"/><path d="m48.328125 221.65625c69.625 0 129.792969-27.566406 158.335937-67.558594-5.199218-20.882812-23.847656-36.441406-46.335937-36.441406-24.015625 0-43.855469 17.65625-47.382813 40.6875-6.808593-5.359375-15.28125-8.6875-24.617187-8.6875-22.089844 0-40 17.910156-40 40 0 2.769531.28125 5.472656.816406 8.078125-.273437-.007813-.535156-.078125-.816406-.078125-14.230469 0-26.144531 9.351562-30.304687 22.191406 9.847656 1.167969 19.960937 1.808594 30.304687 1.808594zm0 0" fill="#e8eff4"/><path d="m296.328125 373.65625h40c17.671875 0 32-14.328125 32-32s-14.328125-32-32-32h-24v-32h24c35.34375 0 64 28.65625 64 64s-28.65625 64-64 64h-48" fill="#b8cbd9"/><path d="m320.328125 229.65625h-320v46.160156c0 74.230469 21.976563 146.800782 63.152344 208.566406l.847656 1.273438h192l.847656-1.28125c41.175781-61.757812 63.152344-134.328125 63.152344-208.558594zm0 0" fill="#f0d365"/><path d="m.328125 229.65625h320v48h-320zm0 0" fill="#c18e59"/><path d="m216.328125 381.65625c0 22.085938-17.914063 40-40 40h-32c-22.089844 0-40-17.914062-40-40 0-22.089844 17.910156-40 40-40h32c22.085937 0 40 17.910156 40 40zm0 0" fill="#c18e59"/><path d="m178.273438 365.65625c-8.546876 0-16.585938 3.328125-22.632813 9.375l-1.9375 1.9375c-3.023437 3.023438-7.039063 4.6875-11.320313 4.6875h-38.054687c0 5.695312 1.230469 11.097656 3.375 16h34.679687c8.546876 0 16.585938-3.328125 22.632813-9.375l1.9375-1.9375c3.023437-3.023438 7.039063-4.6875 11.320313-4.6875h38.054687c0-5.695312-1.230469-11.097656-3.375-16zm0 0" fill="#a66d43"/><g fill="#b8cbd9"><path d="m29.984375 163.3125-11.3125-11.3125 15.511719-15.511719c3.96875-3.96875 6.144531-9.230469 6.144531-14.832031s-2.175781-10.863281-6.144531-14.832031l-7.03125-7.03125c-6.984375-6.976563-10.824219-16.265625-10.824219-26.136719s3.839844-19.160156 10.832031-26.144531l15.511719-15.511719 11.3125 11.3125-15.511719 15.511719c-3.96875 3.96875-6.144531 9.230469-6.144531 14.832031s2.175781 10.863281 6.144531 14.832031l7.03125 7.03125c6.984375 6.976563 10.824219 16.265625 10.824219 26.136719s-3.839844 19.160156-10.832031 26.144531zm0 0"/><path d="m77.984375 131.3125-11.3125-11.3125 15.511719-15.511719c3.96875-3.96875 6.144531-9.230469 6.144531-14.832031s-2.175781-10.863281-6.144531-14.832031l-7.03125-7.03125c-6.984375-6.976563-10.824219-16.265625-10.824219-26.136719s3.839844-19.160156 10.832031-26.144531l15.511719-15.511719 11.3125 11.3125-15.511719 15.511719c-3.96875 3.96875-6.144531 9.230469-6.144531 14.832031s2.175781 10.863281 6.144531 14.832031l7.03125 7.03125c6.984375 6.976563 10.824219 16.265625 10.824219 26.136719s-3.839844 19.160156-10.832031 26.144531zm0 0"/></g></svg>