<svg id="Layer_1" height="512" viewBox="0 0 512 512" width="512" xmlns="http://www.w3.org/2000/svg" data-name="Layer 1"><g id="_Group_3" data-name=" Group 3"><path d="m109.35 267.41h364.72a25.435 25.435 0 1 1 0 50.87h-436.14a25.435 25.435 0 1 1 0-50.87z" fill="#fedb41"/><path d="m226.78 127.8v25.98h-80.09v-25.98h40.05z" fill="#fedb41"/><path d="m186.19 104.05h.55 21.91v23.69h-43.83v-23.69z" fill="#00efd1"/><path d="m84.58 465.12a6 6 0 0 1 -4.242-10.242l19.13-19.13a6 6 0 1 1 8.484 8.484l-19.13 19.13a5.979 5.979 0 0 1 -4.242 1.758z" fill="#00efd1"/><path d="m427.42 464.04a5.979 5.979 0 0 1 -4.242-1.758l-19.13-19.13a6 6 0 1 1 8.484-8.484l19.13 19.13a6 6 0 0 1 -4.242 10.242z" fill="#00efd1"/><g fill="#00acea"><path d="m186.74 186.83a6 6 0 0 1 -6-6v-6.49a6 6 0 0 1 12 0v6.49a6 6 0 0 1 -6 6z"/><path d="m165.09 186.83a6 6 0 0 1 -6-6v-6.49a6 6 0 0 1 12 0v6.49a6 6 0 0 1 -6 6z"/><path d="m208.38 186.83a6 6 0 0 1 -6-6v-6.49a6 6 0 0 1 12 0v6.49a6 6 0 0 1 -6 6z"/><path d="m186.74 214.97a6 6 0 0 1 -6-6v-6.49a6 6 0 0 1 12 0v6.49a6 6 0 0 1 -6 6z"/><path d="m165.09 214.97a6 6 0 0 1 -6-6v-6.49a6 6 0 0 1 12 0v6.49a6 6 0 0 1 -6 6z"/><path d="m208.38 214.97a6 6 0 0 1 -6-6v-6.49a6 6 0 0 1 12 0v6.49a6 6 0 0 1 -6 6z"/></g><path d="m115.35 267.7h-12v-176.4a44.42 44.42 0 1 1 88.84 0v12.98h-12v-12.98a32.42 32.42 0 1 0 -64.84 0z" fill="#f4b844"/></g><path d="m408.39 439.01a86.16 86.16 0 0 1 -38.75 9.14h-227.28a86.582 86.582 0 0 1 -86.58-86.58v-43.29h400.44v43.29a86.573 86.573 0 0 1 -47.83 77.44z" fill="#00acea"/></svg>