<svg xmlns="http://www.w3.org/2000/svg" height="511.99998pt" version="1.1" viewBox="1 1 511.99998 511.99998" width="511.99998pt">
<g id="surface1">
<path d="M 512 256 C 512 397.386719 397.386719 512 256 512 C 114.613281 512 0 397.386719 0 256 C 0 114.613281 114.613281 0 256 0 C 397.386719 0 512 114.613281 512 256 Z M 512 256 " style=" stroke:none;fill-rule:nonzero;fill:rgb(94.901961%,26.27451%,33.333333%);fill-opacity:1;" />
<path d="M 473.34375 36.125 L 473.34375 391.34375 C 450.59375 427.789062 418.921875 458.113281 381.390625 479.230469 C 374.609375 483.054688 367.640625 486.578125 360.492188 489.773438 C 328.59375 504.058594 293.222656 512 256.003906 512 L 212.117188 512 L 212.117188 508.246094 C 172.789062 501.457031 136.539062 485.6875 105.539062 463.140625 C 98.277344 457.851562 91.296875 452.191406 84.640625 446.183594 C 66.875 430.175781 51.378906 411.722656 38.664062 391.34375 L 38.664062 36.125 C 38.664062 24.828125 47.820312 15.671875 59.117188 15.671875 L 452.890625 15.671875 C 464.183594 15.671875 473.34375 24.828125 473.34375 36.125 Z M 473.34375 36.125 " style=" stroke:none;fill-rule:nonzero;fill:rgb(16.470588%,25.098039%,47.843137%);fill-opacity:1;" />
<path d="M 381.390625 101.636719 L 381.390625 479.230469 C 374.609375 483.054688 367.640625 486.578125 360.492188 489.773438 C 328.59375 504.058594 293.222656 512 256.003906 512 L 212.117188 512 L 212.117188 508.246094 C 172.789062 501.457031 136.539062 485.6875 105.539062 463.140625 C 98.277344 457.851562 91.296875 452.191406 84.640625 446.183594 L 84.640625 101.636719 Z M 381.390625 101.636719 " style=" stroke:none;fill-rule:nonzero;fill:rgb(10.588235%,17.254902%,38.039216%);fill-opacity:1;" />
<path d="M 360.492188 122.535156 L 360.492188 489.773438 C 328.59375 504.058594 293.222656 512 256.003906 512 L 212.117188 512 L 212.117188 508.246094 C 172.789062 501.457031 136.539062 485.6875 105.539062 463.140625 L 105.539062 122.535156 Z M 360.492188 122.535156 " style=" stroke:none;fill-rule:nonzero;fill:rgb(86.27451%,92.54902%,97.647059%);fill-opacity:1;" />
<path d="M 105.539062 122.535156 L 360.492188 122.535156 L 360.492188 143.972656 L 105.539062 143.972656 Z M 105.539062 122.535156 " style=" stroke:none;fill-rule:nonzero;fill:rgb(68.627451%,76.078431%,92.156863%);fill-opacity:1;" />
<path d="M 212.117188 122.535156 L 253.914062 122.535156 L 253.914062 512 L 212.117188 512 Z M 212.117188 122.535156 " style=" stroke:none;fill-rule:nonzero;fill:rgb(68.627451%,76.078431%,92.156863%);fill-opacity:1;" />
<path d="M 223.609375 122.535156 L 242.417969 122.535156 L 242.417969 512 L 223.609375 512 Z M 223.609375 122.535156 " style=" stroke:none;fill-rule:nonzero;fill:rgb(5.882353%,12.156863%,27.843137%);fill-opacity:1;" />
<path d="M 451.601562 394.210938 L 403.128906 394.210938 C 399.203125 394.210938 396.019531 391.027344 396.019531 387.101562 L 396.019531 293.695312 C 396.019531 289.769531 399.203125 286.585938 403.128906 286.585938 L 451.601562 286.585938 C 455.53125 286.585938 458.714844 289.769531 458.714844 293.695312 L 458.714844 387.101562 C 458.714844 391.027344 455.53125 394.210938 451.601562 394.210938 Z M 451.601562 394.210938 " style=" stroke:none;fill-rule:nonzero;fill:rgb(87.843137%,88.627451%,88.627451%);fill-opacity:1;" />
<path d="M 447.414062 340.398438 C 447.414062 351.46875 438.4375 360.445312 427.367188 360.445312 C 416.292969 360.445312 407.320312 351.46875 407.320312 340.398438 C 407.320312 329.328125 416.292969 320.351562 427.367188 320.351562 C 438.4375 320.351562 447.414062 329.328125 447.414062 340.398438 Z M 447.414062 340.398438 " style=" stroke:none;fill-rule:nonzero;fill:rgb(94.901961%,26.27451%,33.333333%);fill-opacity:1;" />
<path d="M 140.953125 47.132812 L 176.59375 82.773438 L 212.230469 47.132812 Z M 140.953125 47.132812 " style=" stroke:none;fill-rule:nonzero;fill:rgb(99.215686%,68.235294%,18.431373%);fill-opacity:1;" />
<path d="M 325.074219 82.773438 L 289.4375 47.132812 L 253.796875 82.773438 Z M 325.074219 82.773438 " style=" stroke:none;fill-rule:nonzero;fill:rgb(99.215686%,68.235294%,18.431373%);fill-opacity:1;" />
</g>
</svg>