<svg height="392pt" viewBox="-8 0 392 392.005" width="392pt" xmlns="http://www.w3.org/2000/svg"><path d="m95.921875 291.726562v39.359376h-7.648437c-4.222657 0-7.644532 3.421874-7.644532 7.644531 0 4.222656 3.421875 7.644531 7.644532 7.644531h198.699218c4.222656 0 7.644532-3.421875 7.644532-7.644531 0-4.222657-3.421876-7.644531-7.644532-7.644531h-7.640625v-83.5c-.003906-6.84375-5.554687-12.386719-12.398437-12.382813l-158.652344.203125c-6.832031.007812-12.363281 5.546875-12.367188 12.378906l.007813 6.941406zm273.320313-144.25v204.597657c0 18.738281-15.191407 33.929687-33.929688 33.929687h-295.378906c-18.742188 0-33.933594-15.191406-33.929688-33.929687v-204.597657zm-140.078126 59.367188c4.257813-4.261719 4.886719-10.949219 1.5-15.929688l-10.382812-15.277343-10.390625 15.277343c-3.636719 5.359376-2.601563 12.605469 2.390625 16.730469s12.300781 3.78125 16.882812-.800781zm-73.53125 0c4.261719-4.261719 4.890626-10.949219 1.5-15.929688l-10.378906-15.277343-10.390625 15.277343c-3.636719 5.359376-2.601562 12.605469 2.386719 16.730469 4.992188 4.125 12.304688 3.78125 16.882812-.800781zm0 0" fill="#f8ec7d"/><path d="m369.242188 82.636719v64.839843h-363.238282v-64.839843c-.003906-18.742188 15.1875-33.933594 33.929688-33.933594h21.558594v4.121094c0 14.230469 11.535156 25.765625 25.765624 25.765625 14.230469 0 25.765626-11.535156 25.765626-25.765625v-4.121094h149.199218v4.121094c0 14.230469 11.535156 25.765625 25.765625 25.765625s25.765625-11.535156 25.765625-25.765625v-4.121094h21.558594c18.738281 0 33.929688 15.191406 33.929688 33.933594zm0 0" fill="#e48e66"/><path d="m313.753906 48.703125v4.121094c0 14.230469-11.535156 25.765625-25.765625 25.765625s-25.765625-11.535156-25.765625-25.765625v-21.058594c0-14.230469 11.535156-25.765625 25.765625-25.765625s25.765625 11.535156 25.765625 25.765625zm0 0" fill="#f8ec7d"/><path d="m286.972656 331.085938c4.222656 0 7.644532 3.421874 7.644532 7.644531 0 4.222656-3.421876 7.644531-7.644532 7.644531h-198.699218c-4.222657 0-7.644532-3.421875-7.644532-7.644531 0-4.222657 3.421875-7.644531 7.644532-7.644531zm0 0" fill="#cc7350"/><path d="m279.332031 291.925781v39.160157h-183.410156v-39.359376c9.621094 18.617188 36.242187 18.617188 45.871094 0 4.4375 8.574219 13.285156 13.957032 22.941406 13.957032 9.652344 0 18.5-5.382813 22.9375-13.957032 4.433594 8.578126 13.28125 13.964844 22.9375 13.96875 9.65625 0 18.507813-5.382812 22.941406-13.960937h.011719c9.601562 18.550781 36.058594 18.609375 45.769531.191406zm0 0" fill="#e48e66"/><path d="m233.550781 291.734375c-4.433593 8.578125-13.285156 13.960937-22.941406 13.960937-9.65625-.003906-18.503906-5.390624-22.9375-13.96875-4.4375 8.574219-13.285156 13.957032-22.9375 13.957032-9.65625 0-18.503906-5.382813-22.941406-13.957032-9.628907 18.617188-36.25 18.617188-45.871094 0v-37c9.621094 18.617188 36.242187 18.617188 45.871094 0 4.4375 8.574219 13.285156 13.957032 22.941406 13.957032 9.652344 0 18.5-5.382813 22.9375-13.957032 4.433594 8.578126 13.28125 13.964844 22.9375 13.96875 9.65625 0 18.507813-5.382812 22.941406-13.960937h.011719c9.601562 18.550781 36.058594 18.609375 45.769531.191406v37c-9.710937 18.417969-36.167969 18.359375-45.769531-.191406zm0 0" fill="#cc7350"/><path d="m233.550781 254.734375c-4.433593 8.578125-13.285156 13.960937-22.941406 13.960937-9.65625-.003906-18.503906-5.390624-22.9375-13.96875-4.4375 8.574219-13.285156 13.957032-22.9375 13.957032-9.65625 0-18.503906-5.382813-22.941406-13.957032-9.628907 18.617188-36.25 18.617188-45.871094 0l-.007813-6.941406c.003907-6.832031 5.535157-12.371094 12.367188-12.378906l158.652344-.203125c6.84375-.003906 12.394531 5.539063 12.398437 12.382813v7.339843c-9.710937 18.417969-36.167969 18.359375-45.769531-.191406zm0 0" fill="#e48e66"/><path d="m230.664062 190.914062c3.554688 5.234376 2.660157 12.292969-2.085937 16.472657-4.742187 4.183593-11.859375 4.183593-16.601563 0-4.746093-4.179688-5.636718-11.238281-2.085937-16.472657l10.390625-15.277343zm0 0" fill="#6fe3ff"/><path d="m157.132812 190.914062c3.554688 5.234376 2.660157 12.292969-2.082031 16.472657-4.746093 4.183593-11.859375 4.183593-16.605469 0-4.746093-4.179688-5.636718-11.238281-2.082031-16.472657l10.390625-15.277343zm0 0" fill="#6fe3ff"/><path d="m61.492188 48.703125v-16.9375c0-14.230469 11.535156-25.765625 25.765624-25.765625 14.230469 0 25.765626 11.535156 25.765626 25.765625v21.058594c0 14.230469-11.535157 25.765625-25.765626 25.765625-14.230468 0-25.765624-11.535156-25.765624-25.765625zm0 0" fill="#f8ec7d"/><g fill="#63316d"><path d="m39.933594 392.003906h295.378906c22.042969-.023437 39.90625-17.886718 39.929688-39.929687v-269.4375c-.023438-22.042969-17.886719-39.90625-39.929688-39.933594h-15.558594v-10.9375c0-17.542969-14.222656-31.765625-31.765625-31.765625s-31.765625 14.222656-31.765625 31.765625v10.9375h-137.199218v-10.9375c0-17.542969-14.222657-31.765625-31.765626-31.765625-17.542968 0-31.765624 14.222656-31.765624 31.765625v10.9375h-15.558594c-22.042969.027344-39.9062502 17.890625-39.92968775 39.933594v269.4375c.02343755 22.042969 17.88671875 39.90625 39.92968775 39.929687zm295.378906-12h-295.378906c-15.417969-.015625-27.914063-12.511718-27.929688-27.929687v-198.597657h351.238282v198.597657c-.015626 15.417969-12.511719 27.914062-27.929688 27.929687zm-67.089844-348.238281c0-10.917969 8.847656-19.765625 19.765625-19.765625 10.914063 0 19.765625 8.847656 19.765625 19.765625v15.230469c-.335937 1.117187-.335937 2.304687 0 3.417968v2.410157c0 10.917969-8.851562 19.765625-19.765625 19.765625-10.917969 0-19.765625-8.847656-19.765625-19.765625zm-180.960937-19.761719c10.914062 0 19.761719 8.847656 19.761719 19.761719v21.058594c0 10.917969-8.851563 19.765625-19.765626 19.765625-10.917968 0-19.765624-8.847656-19.765624-19.765625v-4.019531c0-.03125 0-.066407 0-.101563 0-.03125 0-.0625 0-.097656v-16.839844c.015624-10.910156 8.859374-19.75 19.769531-19.761719zm-47.328125 42.699219h15.617187c1 16.78125 14.898438 29.878906 31.707031 29.878906 16.808594 0 30.707032-13.097656 31.703126-29.878906h137.320312c1 16.78125 14.898438 29.878906 31.707031 29.878906 16.808594 0 30.707031-13.097656 31.703125-29.878906h15.621094c15.417969.019531 27.914062 12.511719 27.929688 27.933594v58.839843h-351.238282v-58.839843c.015625-15.421875 12.511719-27.914063 27.929688-27.933594zm0 0"/><path d="m286.972656 325.085938h-1.640625v-32.253907c.128907-.714843.128907-1.445312 0-2.15625v-34.84375c.128907-.714843.128907-1.445312 0-2.15625v-6.089843c-.015625-10.15625-8.253906-18.378907-18.410156-18.382813l-40.300781.054687v-13.863281c2.550781-.921875 4.867187-2.390625 6.785156-4.304687 6.289062-6.300782 7.21875-16.183594 2.214844-23.546875l-10.378906-15.28125c-1.117188-1.640625-2.972657-2.625-4.960938-2.625s-3.84375.980469-4.960938 2.625l-10.398437 15.289062c-3.28125 4.839844-4.089844 10.945313-2.179687 16.472657 1.90625 5.527343 6.308593 9.832031 11.878906 11.617187v13.628906l-61.527344.078125v-13.953125c2.546875-.921875 4.863281-2.390625 6.78125-4.304687 6.292969-6.300782 7.222656-16.179688 2.21875-23.546875l-10.378906-15.28125c-1.117188-1.640625-2.972656-2.625-4.960938-2.625-1.988281 0-3.84375.980469-4.960937 2.625l-10.402344 15.289062c-3.28125 4.839844-4.089844 10.945313-2.179687 16.472657 1.90625 5.527343 6.3125 9.832031 11.878906 11.617187v13.722656l-32.816406.042969c-10.140626.027344-18.347657 8.25-18.363282 18.386719v77.292969h-1.636718c-7.535157 0-13.644532 6.109374-13.644532 13.644531 0 7.535156 6.109375 13.644531 13.644532 13.644531h198.699218c7.539063 0 13.652344-6.109375 13.648438-13.648438-.007813-7.535156-6.117188-13.636718-13.648438-13.640624zm-72.117187-130.800782 5.425781-7.980468 5.421875 7.984374c1.765625 2.597657 1.4375 6.085938-.785156 8.308594-1.226563 1.238282-2.898438 1.929688-4.640625 1.925782-2.425782 0-4.652344-1.34375-5.789063-3.488282-1.136719-2.144531-.992187-4.742187.371094-6.75zm-73.53125 0 5.425781-7.980468 5.421875 7.984374c1.765625 2.597657 1.4375 6.085938-.78125 8.308594-1.230469 1.238282-2.898437 1.929688-4.640625 1.925782-2.429688 0-4.65625-1.34375-5.792969-3.488282-1.136719-2.144531-.992187-4.742187.371094-6.75zm97.566406 94.6875c-.019531-.035156-.042969-.0625-.0625-.101562-.121094-.222656-.261719-.4375-.410156-.644532-.058594-.082031-.117188-.160156-.179688-.238281-.164062-.207031-.34375-.40625-.535156-.589843-.027344-.023438-.042969-.050782-.070313-.074219-.089843-.085938-.1875-.164063-.285156-.242188l-.027344-.023437c-.9375-.757813-2.085937-1.214844-3.289062-1.3125-.023438 0-.042969 0-.066406 0-.136719-.007813-.273438-.019532-.414063-.019532-.03125 0-.066406 0-.097656 0h-.078125c-1.335938.039063-2.625.523438-3.652344 1.378907-.039062.03125-.070312.066406-.101562.09375-.109375.101562-.214844.191406-.316406.292969-.054688.054687-.101563.117187-.15625.171874-.082032.089844-.160157.175782-.238282.265626-.042968.050781-.078125.109374-.121094.164062-.078124.101562-.160156.210938-.234374.320312-.027344.046876-.054688.097657-.085938.140626-.078125.125-.152344.25-.21875.382812-.007812.007812-.015625.019531-.019531.03125-3.40625 6.582031-10.203125 10.71875-17.617188 10.714844-7.410156-.003906-14.203125-4.140625-17.605469-10.730469-1.03125-1.988281-3.085937-3.238281-5.328124-3.238281-2.242188 0-4.296876 1.25-5.328126 3.242187-3.40625 6.582031-10.199218 10.71875-17.609374 10.71875-7.414063 0-14.207032-4.136719-17.613282-10.71875-1.03125-1.992187-3.085937-3.242187-5.328125-3.242187-2.242187 0-4.296875 1.25-5.328125 3.242187-3.347656 6.636719-10.179687 10.796875-17.609375 10.722657-6.9375.070312-13.386719-3.558594-16.929687-9.523438v-20.339844c5.070312 3.1875 10.9375 4.878906 16.925781 4.875h.007813c8.65625.015625 16.941406-3.507812 22.9375-9.75 6.007812 6.226563 14.289062 9.742188 22.941406 9.742188s16.933594-3.515625 22.9375-9.742188c6.003906 6.234375 14.289062 9.757813 22.945312 9.753906 8.65625 0 16.9375-3.527343 22.9375-9.765624 5.964844 6.222656 14.203125 9.746093 22.820313 9.765624h.121093c5.953126.003907 11.789063-1.667968 16.835938-4.820312v20.464844c-3.566406 5.871094-9.960938 9.425781-16.832031 9.355468h-.089844c-7.402344.042969-14.191406-4.109374-17.53125-10.71875zm-130.601563-47.566406 158.644532-.203125c3.527344 0 6.386718 2.855469 6.398437 6.382813v5.753906c-3.566406 5.871094-9.964843 9.425781-16.832031 9.355468h-.078125c-7.402344.042969-14.191406-4.109374-17.527344-10.71875-.019531-.035156-.046875-.0625-.0625-.097656-.125-.226562-.261719-.441406-.414062-.648437-.058594-.082031-.117188-.160157-.175781-.238281-.167969-.207032-.347657-.40625-.539063-.589844-.023437-.019532-.042969-.050782-.066406-.070313-.09375-.085937-.191407-.167969-.289063-.246093l-.027344-.023438c-.9375-.757812-2.085937-1.214844-3.289062-1.308594h-.050781c-.140625-.011718-.28125-.023437-.425781-.023437-.035157 0-.070313 0-.105469 0h-.054688c-1.347656.035156-2.640625.519531-3.675781 1.382812-.023438.019531-.046875.042969-.070312.066407-.121094.097656-.238282.207031-.351563.320312-.050781.050781-.097656.105469-.144531.160156-.082032.089844-.167969.179688-.246094.277344-.042969.050781-.078125.105469-.117188.15625-.082031.105469-.164062.214844-.238281.324219-.027343.046875-.054687.09375-.085937.140625-.078125.125-.152344.25-.222656.382812-.003907.011719-.011719.019532-.015626.03125-3.40625 6.585938-10.203124 10.71875-17.617187 10.714844-7.414063 0-14.207031-4.140625-17.605469-10.726562-1.03125-1.992188-3.085937-3.242188-5.328125-3.242188-2.242187 0-4.300781 1.253906-5.328125 3.246094-3.40625 6.582031-10.199218 10.714844-17.613281 10.714844-7.410156 0-14.203125-4.132813-17.609375-10.714844-1.03125-1.992188-3.085938-3.246094-5.328125-3.246094-2.246094 0-4.300781 1.253906-5.332031 3.246094-3.347656 6.636718-10.175782 10.792968-17.609375 10.71875-6.9375.070312-13.386719-3.558594-16.929688-9.527344l-.007812-5.378906c.011719-3.511719 2.859375-6.359375 6.371093-6.371094zm-6.367187 65.410156c5.070313 3.1875 10.9375 4.878906 16.925781 4.875h.003906c8.660157.015625 16.945313-3.507812 22.941407-9.75 6.007812 6.226563 14.289062 9.742188 22.941406 9.742188s16.929687-3.515625 22.9375-9.742188c6.003906 6.234375 14.289063 9.757813 22.945313 9.753906 8.65625 0 16.9375-3.527343 22.9375-9.765624 5.964843 6.222656 14.203124 9.746093 22.820312 9.765624h.121094c5.953125.003907 11.789062-1.667968 16.835937-4.820312v18.210938h-171.410156zm186.199219 33.089844c-.304688.304688-.71875.472656-1.152344.464844h-198.695312c-.910157 0-1.644532-.734375-1.644532-1.644532 0-.90625.734375-1.644531 1.644532-1.644531h198.699218c.667969 0 1.273438.402344 1.527344 1.023438.253906.621093.101562 1.332031-.378906 1.800781zm0 0"/></g></svg>