<?xml version="1.0"?>
<svg xmlns="http://www.w3.org/2000/svg" viewBox="0 0 64 64" width="512" height="512"><g id="Meal"><path d="M36.43,47.05,56.59,35.3a2.981,2.981,0,0,1,4.07,1.1,3.02,3.02,0,0,1-1.09,4.1L28.75,58.46a4.035,4.035,0,0,1-2.01.54H13l-4-.99V42l4.01-1H33a3.994,3.994,0,0,1,3.43,6.05Z" style="fill:#ffc477"/><polygon points="57 27 55 31 9 31 7 27 10 27 54 27 57 27" style="fill:#fee9ab"/><path d="M54,27H10A20,20,0,0,1,29,7.03c.33-.02.67-.03,1-.03h4c.33,0,.67.01,1,.03A20,20,0,0,1,54,27Z" style="fill:#ff7956"/><path d="M35,6V7.03c-.33-.02-.67-.03-1-.03H30c-.33,0-.67.01-1,.03V6a3,3,0,0,1,6,0Z" style="fill:#fee9ab"/><path d="M9,58.01V59a2.006,2.006,0,0,1-2,2H5a2.006,2.006,0,0,1-2-2V41a2.006,2.006,0,0,1,2-2H7a2.006,2.006,0,0,1,2,2V58.01Z" style="fill:#57a4ff"/><path d="M61.525,35.9a4,4,0,0,0-5.439-1.462L38,44.978A5.005,5.005,0,0,0,33,40H13.013a.99.99,0,0,0-.242.03l-2.8.7A2.993,2.993,0,0,0,7,38H5a3,3,0,0,0-3,3V59a3,3,0,0,0,3,3H7a2.994,2.994,0,0,0,2.972-2.72l2.788.691A1.017,1.017,0,0,0,13,60H26.74a5.056,5.056,0,0,0,2.514-.676L60.075,41.363A4.032,4.032,0,0,0,61.525,35.9ZM8,59a1,1,0,0,1-1,1H5a1,1,0,0,1-1-1V41a1,1,0,0,1,1-1H7a1,1,0,0,1,1,1ZM59.066,39.636,28.253,57.593A3.054,3.054,0,0,1,26.74,58H13.122L10,57.227V42.781L13.136,42H33a2.992,2.992,0,0,1,2.573,4.533,3.093,3.093,0,0,1-.445.585A3.018,3.018,0,0,1,33,48H23v2H33a4.927,4.927,0,0,0,4.143-2.208L57.087,36.167a1.967,1.967,0,0,1,2.7.728A2.023,2.023,0,0,1,59.066,39.636Z"/><path d="M8.105,31.447A1,1,0,0,0,9,32H55a1,1,0,0,0,.9-.553l2-4A1,1,0,0,0,57,26H54.949A21.011,21.011,0,0,0,36,6.1V6a4,4,0,0,0-8,0v.1A21.011,21.011,0,0,0,9.051,26H7a1,1,0,0,0-.895,1.447ZM32,4a2,2,0,0,1,2,2H30A2,2,0,0,1,32,4ZM30,8h4A19.007,19.007,0,0,1,52.949,26h-41.9A19.007,19.007,0,0,1,30,8ZM55.382,28l-1,2H9.618l-1-2Z"/><path d="M34,10v2A15,15,0,0,1,48.526,23.25l1.936-.5A17,17,0,0,0,34,10Z"/><rect x="30" y="10" width="2" height="2"/><path d="M2.4,12h2a1.552,1.552,0,0,1,.412-1.083,3.611,3.611,0,0,0,0-4.5A1.558,1.558,0,0,1,4.4,5.33a1.542,1.542,0,0,1,.412-1.08A3.5,3.5,0,0,0,5.6,2h-2a1.553,1.553,0,0,1-.412,1.081A3.487,3.487,0,0,0,2.4,5.33a3.5,3.5,0,0,0,.788,2.252,1.631,1.631,0,0,1,0,2.167A3.493,3.493,0,0,0,2.4,12Z"/><path d="M8.4,12h2a1.552,1.552,0,0,1,.412-1.083,3.611,3.611,0,0,0,0-4.5A1.558,1.558,0,0,1,10.4,5.33a1.542,1.542,0,0,1,.412-1.08A3.5,3.5,0,0,0,11.6,2h-2a1.553,1.553,0,0,1-.412,1.081A3.487,3.487,0,0,0,8.4,5.33a3.5,3.5,0,0,0,.788,2.252,1.631,1.631,0,0,1,0,2.167A3.493,3.493,0,0,0,8.4,12Z"/><path d="M52.4,12h2a1.552,1.552,0,0,1,.412-1.083,3.611,3.611,0,0,0,0-4.5A1.558,1.558,0,0,1,54.4,5.33a1.542,1.542,0,0,1,.412-1.08A3.5,3.5,0,0,0,55.6,2h-2a1.553,1.553,0,0,1-.412,1.081A3.487,3.487,0,0,0,52.4,5.33a3.5,3.5,0,0,0,.788,2.252,1.631,1.631,0,0,1,0,2.167A3.493,3.493,0,0,0,52.4,12Z"/><path d="M58.4,12h2a1.552,1.552,0,0,1,.412-1.083,3.611,3.611,0,0,0,0-4.5A1.558,1.558,0,0,1,60.4,5.33a1.542,1.542,0,0,1,.412-1.08A3.5,3.5,0,0,0,61.6,2h-2a1.553,1.553,0,0,1-.412,1.081A3.487,3.487,0,0,0,58.4,5.33a3.5,3.5,0,0,0,.788,2.252,1.631,1.631,0,0,1,0,2.167A3.493,3.493,0,0,0,58.4,12Z"/></g></svg>
