<?xml version="1.0" encoding="iso-8859-1"?>
<!-- Generator: Adobe Illustrator 19.0.0, SVG Export Plug-In . SVG Version: 6.00 Build 0)  -->
<svg version="1.1" id="Capa_1" xmlns="http://www.w3.org/2000/svg" xmlns:xlink="http://www.w3.org/1999/xlink" x="0px" y="0px"
	 viewBox="0 0 512 512" style="enable-background:new 0 0 512 512;" xml:space="preserve">
<path style="fill:#303C42;" d="M469.333,106.667H362.667V85.333c0-23.531-19.135-42.667-42.667-42.667H192
	c-23.531,0-42.667,19.135-42.667,42.667v21.333H42.667C19.135,106.667,0,125.802,0,149.333v277.333
	c0,23.531,19.135,42.667,42.667,42.667h426.667c23.531,0,42.667-19.135,42.667-42.667V149.333
	C512,125.802,492.865,106.667,469.333,106.667z M341.333,106.667H170.667V85.333C170.667,73.573,180.24,64,192,64h128
	c11.76,0,21.333,9.573,21.333,21.333V106.667z"/>
<path style="fill:#F2F2F2;" d="M490.667,426.667c0,11.76-9.573,21.333-21.333,21.333H42.667c-11.76,0-21.333-9.573-21.333-21.333
	V149.333c0-11.76,9.573-21.333,21.333-21.333h426.667c11.76,0,21.333,9.573,21.333,21.333V426.667z"/>
<path style="fill:#303C42;" d="M352,256h-53.333v-53.333c0-5.896-4.771-10.667-10.667-10.667h-64
	c-5.896,0-10.667,4.771-10.667,10.667V256H160c-5.896,0-10.667,4.771-10.667,10.667v64c0,5.896,4.771,10.667,10.667,10.667h53.333
	v53.333c0,5.896,4.771,10.667,10.667,10.667h64c5.896,0,10.667-4.771,10.667-10.667v-53.333H352c5.896,0,10.667-4.771,10.667-10.667
	v-64C362.667,260.771,357.896,256,352,256z"/>
<path style="fill:#E53935;" d="M341.333,320H288c-5.896,0-10.667,4.771-10.667,10.667V384h-42.667v-53.333
	c0-5.896-4.771-10.667-10.667-10.667h-53.333v-42.667H224c5.896,0,10.667-4.771,10.667-10.667v-53.333h42.667v53.333
	c0,5.896,4.771,10.667,10.667,10.667h53.333V320z"/>
<linearGradient id="SVGID_1_" gradientUnits="userSpaceOnUse" x1="-36.1918" y1="633.9725" x2="-25.9961" y2="623.7778" gradientTransform="matrix(21.3333 0 0 -21.3333 996.3334 13791.667)">
	<stop  offset="0" style="stop-color:#000000;stop-opacity:0.1"/>
	<stop  offset="1" style="stop-color:#000000;stop-opacity:0"/>
</linearGradient>
<path style="fill:url(#SVGID_1_);" d="M298.667,256H352c2.866,0,5.441,1.16,7.357,2.996l-63.599-63.599l-0.017,0.017
	c1.785,1.906,2.926,4.431,2.926,7.253V256z M213.333,341.333H160c-2.79,0-5.283-1.126-7.182-2.878l-0.035,0.035l63.577,63.577
	c-1.858-1.919-3.026-4.516-3.026-7.401V341.333z M359.671,259.31c1.836,1.915,2.996,4.491,2.996,7.357v64
	c0,5.896-4.771,10.667-10.667,10.667h-53.333v53.333c0,5.896-4.771,10.667-10.667,10.667h-64c-2.885,0-5.482-1.168-7.401-3.026
	L262.292,448h207.042c11.76,0,21.333-9.573,21.333-21.333v-36.361L359.671,259.31z"/>
<linearGradient id="SVGID_2_" gradientUnits="userSpaceOnUse" x1="-47.2194" y1="638.8205" x2="-22.1869" y2="627.1483" gradientTransform="matrix(21.3333 0 0 -21.3333 996.3334 13791.667)">
	<stop  offset="0" style="stop-color:#FFFFFF;stop-opacity:0.2"/>
	<stop  offset="1" style="stop-color:#FFFFFF;stop-opacity:0"/>
</linearGradient>
<path style="fill:url(#SVGID_2_);" d="M469.333,106.667H362.667V85.333c0-23.531-19.135-42.667-42.667-42.667H192
	c-23.531,0-42.667,19.135-42.667,42.667v21.333H42.667C19.135,106.667,0,125.802,0,149.333v277.333
	c0,23.531,19.135,42.667,42.667,42.667h426.667c23.531,0,42.667-19.135,42.667-42.667V149.333
	C512,125.802,492.865,106.667,469.333,106.667z M341.333,106.667H170.667V85.333C170.667,73.573,180.24,64,192,64h128
	c11.76,0,21.333,9.573,21.333,21.333V106.667z"/>
<g>
</g>
<g>
</g>
<g>
</g>
<g>
</g>
<g>
</g>
<g>
</g>
<g>
</g>
<g>
</g>
<g>
</g>
<g>
</g>
<g>
</g>
<g>
</g>
<g>
</g>
<g>
</g>
<g>
</g>
</svg>
