<svg height="512pt" viewBox="-4 0 512 512" width="512pt" xmlns="http://www.w3.org/2000/svg"><path d="m388.199219 149.753906v-43.675781c-15.582031 0-29.6875-6.3125-39.898438-16.523437-10.222656-10.222657-16.535156-24.328126-16.535156-39.910157v-11.640625h-148.8125v11.640625c0 31.164063-25.269531 56.433594-56.433594 56.433594v43.675781" fill="#935d35"/><path d="m103.503906 179.082031h302.550782v265.507813h-302.550782zm0 0" fill="#353a42"/><path d="m62.863281 189.886719h67.917969v259.839843h-67.917969zm0 0" fill="#935d35"/><path d="m373.492188 189.886719h67.921874v259.839843h-67.921874zm0 0" fill="#935d35"/><path d="m62.863281 189.886719h67.917969v49.6875h-67.917969zm0 0" fill="#7f4a26"/><path d="m373.492188 189.886719h67.921874v49.6875h-67.921874zm0 0" fill="#7f4a26"/><path d="m465.414062 156.039062v35.277344c0 12-9.726562 21.726563-21.726562 21.726563h-383.101562c-12 0-21.722657-9.726563-21.722657-21.726563v-35.277344c0-12 9.722657-21.726562 21.722657-21.726562h383.101562c12 0 21.726562 9.726562 21.726562 21.726562zm0 0" fill="#beccd3"/><path d="m465.414062 156.039062v35.277344c0 12-9.726562 21.726563-21.726562 21.726563h-360.398438c-11.988281 0-21.714843-9.726563-21.714843-21.726563v-35.277344c0-12 9.726562-21.726562 21.714843-21.726562h360.398438c12 0 21.726562 9.726562 21.726562 21.726562zm0 0" fill="#dae6ed"/><path d="m302.972656 53.332031c0 25.191407-20.421875 45.613281-45.613281 45.613281s-45.613281-20.421874-45.613281-45.613281c0-25.191406 20.421875-45.613281 45.613281-45.613281s45.613281 20.421875 45.613281 45.613281zm0 0" fill="#dae6ed"/><path d="m257.359375 106.664062c-29.410156 0-53.332031-23.925781-53.332031-53.332031s23.921875-53.332031 53.332031-53.332031c29.40625 0 53.328125 23.925781 53.328125 53.332031s-23.921875 53.332031-53.328125 53.332031zm0-91.226562c-20.894531 0-37.894531 17-37.894531 37.894531s17 37.894531 37.894531 37.894531 37.894531-17 37.894531-37.894531-17-37.894531-37.894531-37.894531zm0 0" fill="#7f4a26"/><path d="m257.359375 61.050781h-21.453125c-4.261719 0-7.71875-3.457031-7.71875-7.71875s3.457031-7.71875 7.71875-7.71875h13.734375v-14.503906c0-4.261719 3.453125-7.71875 7.71875-7.71875 4.261719 0 7.71875 3.457031 7.71875 7.71875v22.222656c0 4.261719-3.457031 7.71875-7.71875 7.71875zm0 0" fill="#333"/><path d="m183.066406 436.730469c-19.535156-15.992188-29.558594-52.847657-23.144531-86.734375 12.625-66.75 48.871094-74.335938 48.871094-74.335938s-1.800781 39.691406 18.046875 59.539063c0 0-10.828125-55.933594 28.859375-95.621094 0 0 7.21875 39.6875 27.066406 59.535156 0 0-1.535156-41.492187 19.847656-41.492187 0 42.449218 87.183594 111.089844 24.894531 179.109375" fill="#ef5361"/><path d="m220.867188 426.570312c-9.4375-31.472656-1.277344-51.550781 16.804687-69.632812 0 0 .605469 19.957031 12.101563 31.453125 0 0 9.078124-27.828125 32.070312-50.8125 0 0 3.21875 82.3125 20.789062 88.992187" fill="#ffe66b"/><path d="m441.410156 426.574219h-378.546875c-11.796875 0-21.359375 9.558593-21.359375 21.355469 0 11.792968 9.5625 21.355468 21.359375 21.355468l157.957031 23.15625 220.589844-23.15625c11.796875 0 21.359375-9.5625 21.359375-21.355468 0-11.796876-9.5625-21.355469-21.359375-21.355469zm0 0" fill="#beccd3"/><path d="m462.765625 447.925781c0 11.804688-9.5625 21.363281-21.355469 21.363281h-345.976562c-5.898438 0-11.25-2.386718-15.109375-6.257812-3.871094-3.855469-6.257813-9.207031-6.257813-15.105469 0-11.792969 9.5625-21.355469 21.367188-21.355469h345.976562c5.898438 0 11.238282 2.386719 15.097656 6.257813 3.871094 3.859375 6.257813 9.199219 6.257813 15.097656zm0 0" fill="#dae6ed"/><path d="m504.28125 490.644531c0 11.792969-9.558594 21.355469-21.363281 21.355469h-461.5625c-5.898438 0-11.238281-2.386719-15.097657-6.257812-3.871093-3.859376-6.257812-9.199219-6.257812-15.097657 0-11.792969 9.5625-21.355469 21.355469-21.355469h461.5625c5.90625 0 11.238281 2.390626 15.105469 6.257813 3.871093 3.859375 6.257812 9.203125 6.257812 15.097656zm0 0" fill="#beccd3"/><path d="m504.28125 490.644531c0 11.792969-9.558594 21.355469-21.363281 21.355469h-417.9375c-5.90625 0-11.238281-2.386719-15.109375-6.257812-3.867188-3.859376-6.253906-9.199219-6.253906-15.097657 0-11.792969 9.558593-21.355469 21.363281-21.355469h417.9375c5.90625 0 11.238281 2.390626 15.105469 6.257813 3.871093 3.859375 6.257812 9.203125 6.257812 15.097656zm0 0" fill="#dae6ed"/></svg>