<svg id="Layer_1" enable-background="new 0 0 512 512" height="512" viewBox="0 0 512 512" width="512" xmlns="http://www.w3.org/2000/svg"><path d="m497 399.875h-482c-8.284 0-15-6.716-15-15v-272c0-8.284 6.716-15 15-15h482c8.284 0 15 6.716 15 15v272c0 8.284-6.716 15-15 15z" fill="#fff4f4"/><path d="m497 97.875h-241.021v302h241.021c8.284 0 15-6.716 15-15v-272c0-8.285-6.716-15-15-15z" fill="#f6efea"/><path d="m379.852 42.125c12.13 0 21.999 9.869 21.999 22v33.75h30v-33.75c0-28.673-23.327-52-51.999-52h-3.001c-28.673 0-52 23.327-52 52v115.75h-146v-115.75c0-12.131 9.869-22 22-22h3.001c12.13 0 21.999 9.869 21.999 22v33.75h30v-33.75c0-28.673-23.327-52-51.999-52h-3.001c-28.673 0-52 23.327-52 52v320c0 8.284 6.716 15 15 15s15-6.716 15-15v-88.249h146v58.249c0 8.284 6.716 15 15 15s15-6.716 15-15v-290c0-12.131 9.869-22 22-22zm-55.001 223.75h-146v-56.001h146z" fill="#00347b"/><path d="m497 477.875h-482c-8.284 0-15-6.716-15-15v-103c0-6.463 4.141-12.2 10.274-14.236 6.252-2.076 13.284-6.923 20.729-12.055 12.722-8.77 27.141-18.709 44.247-18.709 15.673 0 28.203 9.617 39.258 18.101 7.623 5.85 15.505 11.899 20.992 11.899 5.488 0 13.37-6.049 20.992-11.899 11.055-8.484 23.585-18.101 39.258-18.101s28.203 9.617 39.258 18.101c7.622 5.85 15.504 11.899 20.992 11.899s13.37-6.049 20.992-11.899c11.055-8.484 23.585-18.101 39.258-18.101s28.203 9.617 39.258 18.101c7.622 5.85 15.504 11.899 20.992 11.899s13.37-6.049 20.992-11.899c11.055-8.484 23.585-18.101 39.258-18.101 17.106 0 31.525 9.94 44.248 18.709 7.444 5.132 14.477 9.979 20.728 12.055 6.135 2.036 10.274 7.772 10.274 14.236v103c0 8.284-6.716 15-15 15z" fill="#00cef5"/><path d="m497 499.875h-482c-8.284 0-15-6.716-15-15v-24.25c0-6.463 4.141-12.2 10.274-14.236 6.252-2.075 13.284-6.922 20.729-12.055 12.722-8.77 27.141-18.709 44.247-18.709 15.673 0 28.203 9.616 39.258 18.101 7.623 5.85 15.505 11.899 20.992 11.899 5.488 0 13.37-6.049 20.992-11.899 11.055-8.484 23.585-18.101 39.258-18.101s28.203 9.616 39.258 18.101c7.622 5.85 15.504 11.899 20.992 11.899s13.37-6.049 20.992-11.899c11.055-8.484 23.585-18.101 39.258-18.101s28.203 9.616 39.258 18.101c7.622 5.85 15.504 11.899 20.992 11.899s13.37-6.049 20.992-11.899c11.055-8.484 23.585-18.101 39.258-18.101 17.106 0 31.525 9.94 44.248 18.709 7.444 5.132 14.477 9.979 20.728 12.055 6.135 2.036 10.274 7.772 10.274 14.236v24.25c0 8.284-6.716 15-15 15z" fill="#a8ebfa"/><path d="m379.852 12.125h-3.001c-28.673 0-52 23.327-52 52v115.75h-68.872v30h68.872v56.001h-68.872v30h68.872v58.249c0 8.284 6.716 15 15 15s15-6.716 15-15v-290c0-12.131 9.869-22 22-22h3.001c12.13 0 21.999 9.869 21.999 22v33.75h30v-33.75c0-28.673-23.327-52-51.999-52z" fill="#001737"/><path d="m501.726 345.64c-6.251-2.076-13.283-6.923-20.728-12.055-12.723-8.77-27.142-18.709-44.248-18.709-15.673 0-28.203 9.617-39.258 18.101-7.622 5.85-15.504 11.899-20.992 11.899s-13.37-6.049-20.992-11.899c-11.055-8.484-23.585-18.101-39.258-18.101s-28.203 9.617-39.258 18.101c-7.622 5.85-15.504 11.899-20.992 11.899-.007 0-.014-.001-.021-.001v133.001h241.021c8.284 0 15-6.716 15-15v-103c0-6.464-4.14-12.2-10.274-14.236z" fill="#0095ff"/><path d="m501.726 446.389c-6.251-2.076-13.283-6.923-20.728-12.055-12.723-8.77-27.142-18.709-44.248-18.709-15.673 0-28.203 9.616-39.258 18.101-7.622 5.85-15.504 11.899-20.992 11.899s-13.37-6.049-20.992-11.899c-11.055-8.484-23.585-18.101-39.258-18.101s-28.203 9.616-39.258 18.101c-7.622 5.85-15.504 11.899-20.992 11.899-.007 0-.014-.001-.021-.001v54.251h241.021c8.284 0 15-6.716 15-15v-24.25c0-6.463-4.14-12.2-10.274-14.236z" fill="#76e2f8"/></svg>