<svg height="512" viewBox="0 0 58 58" width="512" xmlns="http://www.w3.org/2000/svg"><g id="Page-1" fill="none" fill-rule="evenodd"><g id="008---Wifi-Modem" fill-rule="nonzero"><path id="Shape" d="m7 0c1.1045695 0 2 .8954305 2 2v28h-4v-28c0-1.1045695.8954305-2 2-2z" fill="#464f5d"/><path id="Shape" d="m51 0c1.1045695 0 2 .8954305 2 2v28h-4v-28c0-1.1045695.8954305-2 2-2z" fill="#464f5d"/><path id="Shape" d="m5 28h4c.55228475 0 1 .4477153 1 1v11h-6v-11c0-.5522847.44771525-1 1-1z" fill="#f3d55b"/><path id="Shape" d="m49 28h4c.5522847 0 1 .4477153 1 1v11h-6v-11c0-.5522847.4477153-1 1-1z" fill="#f3d55b"/><path id="Shape" d="m40 52h13v4c0 1.1045695-.8954305 2-2 2h-9c-1.1045695 0-2-.8954305-2-2z" fill="#2c2f38"/><path id="Shape" d="m5 52h13v4c0 1.1045695-.8954305 2-2 2h-9c-1.1045695 0-2-.8954305-2-2z" fill="#2c2f38"/><rect id="Rectangle-path" fill="#bdc3c7" height="16" rx="3" width="58" y="38"/><path id="Rectangle-path" d="m0 43h58v6h-58z" fill="#ecf0f1"/><circle id="Oval" cx="45" cy="46" fill="#71c285" r="1"/><circle id="Oval" cx="5" cy="46" fill="#e64c3c" r="1"/><circle id="Oval" cx="49" cy="46" fill="#71c285" r="1"/><circle id="Oval" cx="53" cy="46" fill="#71c285" r="1"/><g fill="#e64c3c"><path id="Shape" d="m45 19.7109c-.4039243.0000882-.7681479-.2430959-.9229-.6162-2.5294227-6.094173-8.4788484-10.06636002-15.0771-10.06636002s-12.5476773 3.97218702-15.0771 10.06636002c-.1312746.3385853-.4357849.5793938-.795511.6290946-.3597261.0497009-.7181237-.0995182-.9362879-.389824-.2181641-.2903058-.2618021-.676066-.1140011-1.0077706 2.8394619-6.8398214 9.5171117-11.29788052 16.9229-11.29788052s14.0834381 4.45805912 16.9229 11.29788052c.1281922.3086224.0938813.6608656-.0914599.9389477s-.4972533.4453046-.8314401.4457523z"/><path id="Shape" d="m39.1787 21.7969c-.4036766-.0001648-.7676671-.2430224-.9228-.6157-1.5521771-3.7419699-5.2047776-6.1812329-9.2559-6.1812329s-7.7037229 2.439263-9.2559 6.1812329c-.2165707.5033468-.7978891.7386541-1.3036057.5276763-.5057165-.2109778-.7474533-.7896521-.5420943-1.2976763 1.862565-4.4871659 6.2432252-7.4118683 11.1016-7.4118683s9.239035 2.9247024 11.1016 7.4118683c.1281317.3086925.0938098.6609612-.0914989.9391149-.1853086.2781538-.4971731.445521-.8314011.4461851z"/><path id="Shape" d="m33.3584 24.0005c-.4019691-.0000266-.7648021-.2408778-.9209-.6113-.5745799-1.3918222-1.9317407-2.2998119-3.4375-2.2998119s-2.8629201.9079897-3.4375 2.2998119c-.1338416.3367959-.4394315.5748174-.7987447.6221358-.3593133.0473183-.7161064-.1034732-.9325787-.3941358s-.2587393-.6756989-.1104766-1.0064c.8872084-2.132179 2.9699005-3.5213617 5.2793-3.5213617s4.3920916 1.3891827 5.2793 3.5213617c.1302645.3088575.0972884.6624163-.087846.9418569-.1851344.2794405-.4978503.4476667-.833054.4481431z"/><circle id="Oval" cx="29" cy="25" r="1"/></g></g></g></svg>