<?xml version="1.0" encoding="iso-8859-1"?>
<!-- Generator: Adobe Illustrator 19.0.0, SVG Export Plug-In . SVG Version: 6.00 Build 0)  -->
<svg version="1.1" id="Capa_1" xmlns="http://www.w3.org/2000/svg" xmlns:xlink="http://www.w3.org/1999/xlink" x="0px" y="0px"
	 viewBox="0 0 456 456" style="enable-background:new 0 0 456 456;" xml:space="preserve">
<path style="fill:#8ACED8;" d="M436,80h-1.472c-4.335-12.442-17.935-19.014-30.376-14.68c-6.877,2.396-12.284,7.802-14.68,14.68H388
	c-8.837,0-16,7.163-16,16s7.163,16,16,16h48c8.837,0,16-7.163,16-16S444.837,80,436,80L436,80z"/>
<g>
	<path style="fill:#D9D9D9;" d="M280.528,352H175.472l-33.6-56h172.256L280.528,352z M184.528,336h86.944l14.4-24H170.128
		L184.528,336z"/>
	<path style="fill:#D9D9D9;" d="M267.592,234.44L244.104,304H284.8l47.368-87.784l0.088-0.368L332,216
		C311.266,224.474,289.669,230.657,267.592,234.44z"/>
</g>
<path style="fill:#F0F0F0;" d="M272.36,117.376c7.64,33.887,7.64,69.049,0,102.936l-4.8,14.128
	c22.088-3.78,43.696-9.964,64.44-18.44l0.256-0.152c10.332-35.971,10.332-74.125,0-110.096l-1.104-2.08
	c-21.917-8.914-44.804-15.224-68.192-18.8L272.36,117.376z"/>
<path style="fill:#D9D9D9;" d="M188.408,234.44c-22.077-3.783-43.674-9.966-64.408-18.44h-0.064l0.064,0.256L171.368,304h40.528
	L188.408,234.44z"/>
<path style="fill:#D85021;" d="M262.936,84.872L238.472,0.528C234.992,0.304,231.536,0,228,0s-6.992,0.304-10.472,0.528
	l-24.464,84.344C216.231,81.472,239.769,81.472,262.936,84.872z"/>
<path style="fill:#D9D9D9;" d="M331.128,103.672L281.04,9.192c-13.727-4.818-28.05-7.733-42.568-8.664l24.464,84.344
	C286.324,88.448,309.211,94.758,331.128,103.672z"/>
<path style="fill:#D85021;" d="M332,104l54.072,32.448c-8.733-58.601-49.15-107.57-105.032-127.256l50.088,94.48
	C331.416,103.784,331.704,103.88,332,104z"/>
<path style="fill:#F0F0F0;" d="M188.408,234.44l-4.8-14.128c-7.64-33.887-7.64-69.049,0-102.936l9.424-32.504
	c-23.32,3.562-46.143,9.845-68,18.72l-1.144,2.16c-10.356,36.006-10.356,74.202,0,110.208L124,216
	C144.734,224.474,166.331,230.657,188.408,234.44L188.408,234.44z"/>
<path style="fill:#D85021;" d="M188.408,234.44L211.896,304h32.208l23.488-69.56C241.377,238.8,214.623,238.8,188.408,234.44
	L188.408,234.44z"/>
<path style="fill:#F26B32;" d="M183.64,220.312l4.8,14.128c26.22,4.362,52.98,4.362,79.2,0l4.8-14.128
	c7.64-33.887,7.64-69.049,0-102.936l-9.424-32.504c-23.167-3.4-46.705-3.4-69.872,0l-9.424,32.504
	C176.054,151.257,176.026,186.419,183.64,220.312L183.64,220.312z"/>
<path style="fill:#D85021;" d="M332.168,216.216L284.8,304H300c47.023-23.235,79.323-68.434,86.072-120.448l-53.816,32.296
	L332.168,216.216z"/>
<path style="fill:#F26B32;" d="M386.072,136.448L332,104c-0.296-0.12-0.584-0.216-0.872-0.328l1.104,2.08
	c10.332,35.971,10.332,74.125,0,110.096l53.816-32.296c1.231-7.792,1.884-15.664,1.952-23.552
	C387.939,152.112,387.295,144.24,386.072,136.448L386.072,136.448z"/>
<path style="fill:#D9D9D9;" d="M193.064,84.872l24.464-84.344C203.094,1.454,188.853,4.345,175.2,9.12l-50.12,94.472
	C146.932,94.718,169.749,88.435,193.064,84.872z"/>
<g>
	<path style="fill:#D85021;" d="M125.08,103.592L175.2,9.12C119.203,28.744,78.677,77.761,69.928,136.448L124,104
		C124.36,103.856,124.72,103.736,125.08,103.592z"/>
	<path style="fill:#D85021;" d="M124,216.216L123.936,216l-54.008-32.408C76.69,235.591,108.987,280.773,156,304h15.368L124,216.216
		z"/>
</g>
<path style="fill:#F26B32;" d="M123.936,105.752l1.144-2.16c-0.36,0.144-0.72,0.264-1.08,0.408l-54.072,32.448
	C68.705,144.24,68.061,152.113,68,160c0.061,7.887,0.705,15.76,1.928,23.552L123.936,216
	C113.572,179.981,113.572,141.771,123.936,105.752z"/>
<g>
	<path style="fill:#D9D9D9;" d="M252,408h-48c-3.2,0-6.091-1.907-7.352-4.848l-24-56c-1.741-4.061,0.14-8.764,4.201-10.505
		C177.845,336.22,178.917,336,180,336h96c4.418,0,8,3.583,7.999,8.001c0,1.083-0.22,2.155-0.647,3.151l-24,56
		C258.091,406.093,255.2,408,252,408z M209.272,392h37.456l17.136-40h-71.728L209.272,392z"/>
	<path style="fill:#D9D9D9;" d="M257.272,408h-58.544l-30.864-72h120.272L257.272,408z M209.272,392h37.456l17.136-40h-71.728
		L209.272,392z"/>
	<path style="fill:#D9D9D9;" d="M220,336h16v72h-16V336z"/>
</g>
<g>
	<path style="fill:#8ACED8;" d="M68,312h-1.472c-4.335-12.442-17.935-19.014-30.376-14.68c-6.877,2.396-12.284,7.802-14.68,14.68H20
		c-8.837,0-16,7.163-16,16s7.163,16,16,16h48c8.837,0,16-7.163,16-16S76.837,312,68,312z"/>
	<path style="fill:#8ACED8;" d="M76,384h17.472c4.393-12.473,18.066-19.023,30.539-14.629c9.596,3.38,16.009,12.455,15.989,22.629v8
		c0,8.837-7.163,16-16,16H76c-8.837,0-16-7.163-16-16S67.163,384,76,384z"/>
</g>
<path style="fill:#804D35;" d="M244,456h-32c-8.837,0-16-7.163-16-16v-40c0-4.418,3.582-8,8-8h48c4.418,0,8,3.582,8,8v40
	C260,448.837,252.837,456,244,456z"/>
<g>
</g>
<g>
</g>
<g>
</g>
<g>
</g>
<g>
</g>
<g>
</g>
<g>
</g>
<g>
</g>
<g>
</g>
<g>
</g>
<g>
</g>
<g>
</g>
<g>
</g>
<g>
</g>
<g>
</g>
</svg>
