<svg height="107" viewBox="0 0 114 107" width="114" xmlns="http://www.w3.org/2000/svg" xmlns:xlink="http://www.w3.org/1999/xlink"><linearGradient id="a"><stop offset="0" stop-color="#808080" stop-opacity=".25"/><stop offset=".54" stop-color="#808080" stop-opacity=".12"/><stop offset="1" stop-color="#808080" stop-opacity=".1"/></linearGradient><linearGradient id="b" x1="50%" x2="50%" xlink:href="#a" y1="100%" y2="0%"/><linearGradient id="c" x1="0%" x2="100%" xlink:href="#a" y1="50%" y2="50%"/><linearGradient id="d" x1=".006296%" x2="100.006296%" xlink:href="#a" y1="50.001807%" y2="50.001807%"/><linearGradient id="e" x1="50.000222%" x2="50.000222%" y1="100.000449%" y2=".001403%"><stop offset="0" stop-color="#b3b3b3" stop-opacity=".25"/><stop offset=".54" stop-color="#b3b3b3" stop-opacity=".1"/><stop offset="1" stop-color="#b3b3b3" stop-opacity=".05"/></linearGradient><linearGradient id="f"><stop offset="0" stop-opacity=".12"/><stop offset=".55" stop-opacity=".09"/><stop offset="1" stop-opacity=".02"/></linearGradient><linearGradient id="g" x1="49.980092%" x2="49.980092%" xlink:href="#f" y1="99.948692%" y2="0%"/><linearGradient id="h" x1="49.988525%" x2="49.988525%" xlink:href="#f" y1="100.005627%" y2=".007685%"/><mask id="i" fill="#fff"><path d="m.074483.09551h19.833103v12.858061h-19.833103z" fill="#fff" fill-rule="evenodd"/></mask><mask id="j" fill="#fff"><path d="m.074483.055714h19.833103v12.858061h-19.833103z" fill="#fff" fill-rule="evenodd"/></mask><g fill="none" fill-rule="nonzero"><path d="m.020379.028209h60.92392v80.946269h-60.92392z" fill="url(#b)" opacity=".5" transform="translate(21 18.5)"/><path d="m21 19.5h59v78h-59z" fill="#f2f2f2"/><path d="m26 23.5h20v1h-20z" fill="#e0e0e0"/><path d="m26 25.5h20v1h-20z" fill="#f46120" opacity=".7"/><g fill="#e0e0e0"><path d="m49 23.5h20v1h-20z"/><path d="m53 41.5h20v1h-20z"/><path d="m54 42.5h20v1h-20z"/><path d="m55 44.5h20v1h-20z"/><path d="m53 68.5h20v1h-20z"/><path d="m54 70.5h20v1h-20z"/><path d="m55 72.5h20v1h-20z"/></g><path d="m.003962.021728h20.976226v21.885926h-20.976226z" fill="url(#b)" opacity=".5" transform="translate(27 34.5)"/><path d="m27 35.5h21v20h-21z" fill="#f5f5f5"/><path d="m.073469.001287h19.836735v12.926634h-19.836735z" fill="url(#b)" opacity=".5" transform="translate(27 36.5)"/><path d="m27 36.5h20v13h-20z" fill="#fff"/><g fill="#f46120" mask="url(#i)" opacity=".4" transform="translate(51 44.5)"><g transform="translate(-27.034483 -7.561224)"><path d="m.73793103 12.0196939 4.99448276-7.43653063 2.09379311 3.25265306 4.5103448-4.49163266 3.8662069 4.49163266 3.382069-6.66051021 8.697931 13.32234698-28.1889655-.929898z"/><ellipse cx="4.604138" cy="1.484388" rx="1.449655" ry="1.394184"/></g></g><path d="m.003962.117423h20.976226v21.751656h-20.976226z" fill="url(#b)" opacity=".5" transform="translate(27 62.5)"/><path d="m27 63.5h21v20h-21z" fill="#f5f5f5"/><path d="m.073469.091765h19.836735v12.799902h-19.836735z" fill="url(#b)" opacity=".5" transform="translate(27 64.5)"/><path d="m27 64.5h20v13h-20z" fill="#fff"/><g fill="#bdbdbd" mask="url(#j)" opacity=".4" transform="translate(51 72.5)"><g transform="translate(-27.034483 -7.561224)"><path d="m.73793103 11.979898 4.99448276-7.43653065 2.09379311 3.25397959 4.5103448-4.49295918 3.8662069 4.49295918 3.382069-6.66183674 8.697931 13.3223469-28.1889655-.9285714z"/><ellipse cx="4.604138" cy="1.445918" rx="1.449655" ry="1.394184"/></g></g><path d="m-2.86932032 15.5758127 81.74859622.0354739.0263991 60.9633405-81.7485963-.0354739z" fill="url(#c)" opacity=".5" transform="matrix(.19491914 -.98081932 .98081932 .19491914 14.416241 88.88324)"/><path d="m28.1984747 30.6034009 78.3851333.0707685.052863 58.8078081-78.3851335-.0707685z" fill="#fff" transform="matrix(.19491914 -.98081932 .98081932 .19491914 -4.614512 114.463579)"/><path d="m49.2740978 24.3422054 41.7352285-.0375161-.0005683.6294208-41.7352284.0375162z" fill="#e0e0e0" transform="matrix(.98081932 .19491914 -.19491914 .98081932 6.147809 -13.19933)"/><path d="m37.6245095 82.6886966 41.7352285-.0375161-.0005682.6294208-41.7352285.0375162z" fill="#e0e0e0" transform="matrix(.98081932 .19491914 -.19491914 .98081932 17.29721 -9.809477)"/><path d="m37.0044851 85.3129748 32.2500108-.0289898-.0005683.6294208-32.2500108.0289898z" fill="#e0e0e0" transform="matrix(.98081932 .19491914 -.19491914 .98081932 17.706704 -8.71378)"/><path d="m36.4882423 86.8918549 12.0138871-.0107994-.0005682.6294208-12.0138871.0107994z" fill="#f46120" opacity=".7" transform="matrix(.98081932 .19491914 -.19491914 .98081932 17.812258 -6.610492)"/><path d="m48.7623589 25.8590138 20.8669374-.0187574-.0005682.6294208-20.8669374.0187575z" fill="#f46120" opacity=".7" transform="matrix(.98081932 .19491914 -.19491914 .98081932 6.235343 -11.036494)"/><path d="m47.8958726 31.042018 37.6241102-.0338206-.0005683.6294208-37.6241101.0338206z" fill="#e0e0e0" transform="matrix(.98081932 .19491914 -.19491914 .98081932 7.388229 -12.401477)"/><path d="m47.4567626 31.8192977 9.1684572-.0082416-.0005683.6294208-9.1684572.0082416z" fill="#3ad29f" opacity=".7" transform="matrix(.98081932 .19491914 -.19491914 .98081932 7.260906 -9.527457)"/><path d="m46.4391351 38.5436949 41.7352284-.0375161-.0005682.6294208-41.7352285.0375161z" fill="#e0e0e0" transform="matrix(.98081932 .19491914 -.19491914 .98081932 8.861575 -12.374347)"/><path d="m10.6181206-4.18982611 21.8155053-.06458959-.112558 37.4730948-21.8155053.0645896z" fill="url(#d)" opacity=".5" transform="matrix(.19491914 -.98081932 .98081932 .19491914 48.048729 81.24308)"/><path d="m48.3209931 53.0806857 36.9919427-.0332523-.0188998 20.933971-36.9919428.0332524z" fill="#fff" transform="matrix(.98081932 .19491914 -.19491914 .98081932 13.664831 -11.803494)"/><path d="m45.7302754 42.0949337 41.7352285-.0375161-.0005683.6294208-41.7352285.0375161z" fill="#e0e0e0" transform="matrix(.98081932 .19491914 -.19491914 .98081932 9.540183 -12.168062)"/><path d="m52.426766 53.5068171 4.5849054-.0041215-.0137842 15.2678357-4.5849054.0041214z" fill="#f46120" transform="matrix(.98081932 .19491914 -.19491914 .98081932 12.966518 -9.491798)"/><path d="m59.9952947 60.0902464 4.5849054-.0041214-.009237 10.2311212-4.5849054.0041214z" fill="#3ad29f" transform="matrix(.98081932 .19491914 -.19491914 .98081932 13.904091 -10.889521)"/><path d="m67.5962928 66.3619304 4.5849054-.0041214-.0049732 5.5084432-4.5849054.0041214z" fill="#f55f44" transform="matrix(.98081932 .19491914 -.19491914 .98081932 14.812125 -12.296514)"/><path d="m76.2178162 62.3452871 4.5849054-.0041214-.01009 11.1759263-4.5849054.0041214z" fill="#fdd835" transform="matrix(.98081932 .19491914 -.19491914 .98081932 14.746873 -13.999204)"/><path d="m94.8402819 48.8820422c-3.8923788-4.0384178-9.2536296-6.3392688-14.8695259-6.3814519-5.6158963-.042183-11.0112733 2.177871-14.9641754 6.1573599-7.8893298 7.9339213-8.0230472 20.852554-.3062129 28.9545442 6.9997447 7.3494852 18.2922643 8.5926033 26.7301192 2.9425403l15.0686201 15.6344134c.388493.4028707 1.03079.4154103 1.434788.0280115l3.754786-3.6014773c.403866-.3875359.416436-1.0282513.028081-1.4312538l-15.0646085-15.6330795c5.9623515-8.1510329 5.1984235-19.3955687-1.8118716-26.6696068zm-4.6934826 25.1369781c-5.9359632 5.692564-15.3741107 5.5072175-21.0808747-.4139866-5.7067641-5.9212041-5.5211858-15.3361057.4145042-21.0289532 5.93569-5.6928476 15.3738464-5.5079518 21.0808946.4129797 2.7407962 2.8435132 4.2369021 6.6566977 4.1591628 10.6006237-.0777392 3.9439259-1.7229549 7.6954962-4.5736869 10.4293364z" fill="url(#e)"/><path d="m68.4994027 58.5c-1.9976103 0-2.0007963 3 0 3 2.0007964 0 2.0007964-3 0-3z" fill="url(#g)"/><path d="m81.2112969 49.5033002c-4.6194516-.1020455-8.8228104 2.1711537-11.0579406 5.6031073-.7295312 1.1198158 1.3413519 2.1093893 2.0667769.9949443 1.850518-2.8411635 5.3667762-4.6457587 9.1704668-4.5517694 3.9857313.0980174 7.6128562 2.3349637 9.5331794 5.4392973.7281624 1.1775521 2.6375357.1074163 1.9162169-1.0634223-2.3350472-3.7595735-6.8573192-6.3107127-11.6286994-6.4221572z" fill="url(#h)"/><path d="m96.8411862 47.8820422c-3.892477-4.0384178-9.2538631-6.3392688-14.8699011-6.3814519-5.616038-.042183-11.0115511 2.177871-14.9645529 6.1573599-7.8895289 7.9339213-8.0232497 20.852554-.3062207 28.9545442 7.0002694 7.3490555 18.2930399 8.5916064 26.7307936 2.9412065l15.0676629 15.6357472c.388503.4028707 1.030817.4154103 1.434825.0280115l3.75488-3.6014773c.403876-.3875359.416447-1.0282513.028082-1.4312538l-15.0690004-15.6344134c5.9631754-8.149511 5.2015094-19.3930956-1.8065684-26.6682729zm-4.6936011 25.126307c-5.936113 5.6925641-15.3744986 5.5072176-21.0814066-.4139865s-5.521325-15.3361058.4145148-21.0289533c5.9358397-5.6928475 15.3742342-5.5079518 21.0814264.4129798 2.7408653 2.8435131 4.237009 6.6566977 4.1592678 10.6006236-.0777412 3.943926-1.7229984 7.6954963-4.5738024 10.4293364z" fill="#f46120"/><path d="m69.4994027 57.5c-1.9976103 0-2.0007963 3 0 3 2.0007964 0 2.0007964-3 0-3z" fill="#f46120"/><path d="m81.2112969 49.5033002c-4.6194516-.1020455-8.8228104 2.1711537-11.0579406 5.6031073-.7295312 1.1198158 1.3413519 2.1093893 2.0667769.9949443 1.850518-2.8411635 5.3667762-4.6457587 9.1704668-4.5517694 3.9857313.0980174 7.6128562 2.3349637 9.5331794 5.4392973.7281624 1.1775521 2.6375357.1074163 1.9162169-1.0634223-2.3391534-3.7703151-6.8559505-6.3214543-11.6286994-6.4221572z" fill="#f46120"/><path d="m16 90.5h1v3h-1z" fill="#47e6b1"/><path d="m16.264178 90.5h.471644v3h-.471644z" fill="#47e6b1" transform="matrix(0 1 -1 0 108.5 75.5)"/><path d="m77.8299358 1.51439695c-.2544825-.11085079-.3853146-.39521726-.3040352-.66082724.006224-.01984587.0100673-.04036233.011449-.06111697.0082818-.12119592-.064224-.23335849-.1780693-.2754636-.1138453-.0421051-.2417962-.00408044-.3142388.09338596-.0122399.0165638-.0224874.0345133-.0305307.05347735-.1107501.25471379-.3948583.38566482-.6602271.30431158-.0198278-.00622968-.0403257-.01007651-.0610614-.01145943-.1220643-.00882145-.2351263.06459319-.2768308.17975473-.0417044.11516154-.0018991.24403603.0974627.31554738.0165488.01225103.034482.02250789.0534288.03055849.2544824.11085079.3853145.39521725.3040352.66082724-.006224.01984587-.0100674.04036233-.011449.06111697-.0097736.12293285.0637818.23723043.1796511.27915972.1158693.0419293.2454443.00113791.3164733-.09962862.0122399-.0165638.0224874-.03451331.0305307-.05347735.1107501-.25471379.3948583-.38566483.6602271-.30431158.0198278.00622967.0403257.01007651.0610615.01145943.1210858.00828933.2331465-.06428239.2752134-.17823116.0420669-.11394878.0040767-.24201604-.0933012-.31452441-.0185384-.01270973-.038633-.02298015-.0597893-.03055849z" fill="#4d8af0"/><path d="m18.8356888 22.5172373c-.255427-.1111612-.3867447-.3963239-.3051637-.6626776.0062471-.0199014.0101047-.0404753.0114915-.0612881.0083126-.1215353-.0644624-.2340119-.1787302-.2762349s-.2426937-.0040919-.3154051.0936475c-.0122853.0166101-.0225709.0346099-.030644.053627-.1111612.255427-.3963239.3867447-.6626776.3051637-.0199014-.0062471-.0404753-.0101047-.0612881-.0114915-.1215353-.0083126-.2340119.0644624-.2762349.1787302s-.0040919.2426937.0936475.3154051c.0166101.0122853.0346099.0225709.053627.030644.255427.1111612.3867447.3963239.3051637.6626776-.0062471.0199014-.0101047.0404753-.0114915.0612881-.0083126.1215353.0644624.2340119.1787302.2762349s.2426937.0040919.3154051-.0936475c.0122853-.0166101.0225709-.0346099.030644-.053627.1111612-.255427.3963239-.3867447.6626776-.3051637.0199014.0062471.0404753.0101047.0612881.0114915.1215353.0083126.2340119-.0644624.2762349-.1787302s.0040919-.2426937-.0936475-.3154051c-.0166101-.0122853-.0346099-.0225709-.053627-.030644z" fill="#fdd835"/><path d="m102.835689 103.517237c-.255427-.111161-.386745-.396324-.305164-.662677.006247-.019902.010105-.040476.011492-.061288.008312-.121536-.064463-.234012-.178731-.276235-.114267-.042223-.242693-.004092-.315405.093647-.012285.01661-.022571.03461-.030644.053627-.111161.255427-.396324.386745-.662677.305164-.019902-.006247-.040476-.010105-.061288-.011492-.121536-.008312-.234012.064463-.276235.178731-.042223.114267-.004092.242693.093647.315405.01661.012285.03461.022571.053627.030644.255427.111161.386745.396324.305164.662677-.006247.019902-.010105.040476-.011492.061288-.008312.121536.064463.234012.178731.276235.114267.042223.242693.004092.315405-.093647.012285-.01661.022571-.03461.030644-.053627.111161-.255427.396324-.386745.662677-.305164.019902.006247.040476.010105.061288.011492.121536.008312.234012-.064463.276235-.178731.042223-.114267.004092-.242693-.093647-.315405-.01661-.012285-.03461-.022571-.053627-.030644z" fill="#fdd835"/><circle cx="44" cy="11.5" fill="#f55f44" r="1"/><circle cx="111" cy="23.5" fill="#f55f44" r="1"/><circle cx="106" cy="50.5" fill="#4d8af0" r="1"/><circle cx="1" cy="4.5" fill="#47e6b1" opacity=".5" r="1"/></g></svg>