<?xml version="1.0" encoding="iso-8859-1"?>
<!-- Generator: Adobe Illustrator 19.0.0, SVG Export Plug-In . SVG Version: 6.00 Build 0)  -->
<svg version="1.1" id="Capa_1" xmlns="http://www.w3.org/2000/svg" xmlns:xlink="http://www.w3.org/1999/xlink" x="0px" y="0px"
	 viewBox="0 0 469.168 469.168" style="enable-background:new 0 0 469.168 469.168;" xml:space="preserve">
<path style="fill:#F5F9EC;" d="M241.127,8.008c-10.592,0-20.328,7.088-23.184,17.792l-95.248,355.456
	c-3.424,12.784,4.184,25.968,16.968,29.4l185.472,49.696c12.672,3.416,25.968-4.192,29.376-16.976l95.24-355.464
	c3.424-12.784-4.184-25.968-16.952-29.392L247.319,8.824C245.255,8.272,243.175,8.008,241.127,8.008z"/>
<path style="fill:#E4E8DB;" d="M414.151,220.776L291.327,97.952h-92.72l-75.912,283.304c-3.424,12.784,4.184,25.968,16.968,29.4
	l185.472,49.696c12.672,3.416,25.968-4.192,29.376-16.976L414.151,220.776z"/>
<path style="fill:#DCC69F;" d="M176.527,180.344l231.816,62.112l41.416-154.552c3.424-12.784-4.184-25.968-16.952-29.392
	L247.319,8.824c-2.064-0.552-4.144-0.816-6.184-0.816c-10.592,0-20.328,7.088-23.184,17.792L176.527,180.344z"/>
<polygon style="fill:#CDB994;" points="176.527,180.344 408.343,242.456 414.151,220.776 291.327,97.952 198.607,97.952 "/>
<path style="fill:#EA672C;" d="M155.119,414.792L262.783,12.968l-15.472-4.144c-2.064-0.552-4.144-0.816-6.184-0.816
	c-10.592,0-20.328,7.088-23.184,17.792l-95.248,355.456c-3.424,12.784,4.184,25.968,16.968,29.4L155.119,414.792z"/>
<path style="fill:#125D9D;" d="M26.583,430.152c-4.408,0-8-3.584-8-8v-320c0-4.416,3.592-8,8-8h240c13.232,0,24,10.768,24,24v288
	c0,13.232-10.768,24-24,24H26.583z"/>
<path style="fill:#E7BE29;" d="M154.583,134.152c-53.016,0-96,42.984-96,96s42.984,96,96,96s96-42.984,96-96
	S207.607,134.152,154.583,134.152z M225.631,194.152h-34.6c-3.312-16.584-8.48-29.984-13.752-40.32
	C198.415,160.144,215.775,174.8,225.631,194.152z M178.583,230.152c0,7.144-0.536,13.704-1.272,20h-45.456
	c-0.736-6.296-1.272-12.856-1.272-20s0.528-13.704,1.256-20h45.488C178.055,216.448,178.583,223.008,178.583,230.152z
	 M134.511,194.152c4.44-20.048,11.768-34.616,17.744-43.768c0.792-0.024,1.528-0.232,2.328-0.232c0.808,0,1.552,0.216,2.352,0.24
	c6,9.208,13.304,23.784,17.728,43.76H134.511z M131.887,153.832c-5.256,10.32-10.432,23.736-13.744,40.32H83.535
	C93.391,174.8,110.751,160.144,131.887,153.832z M77.423,210.152h38.296c-0.672,6.336-1.136,12.928-1.136,20
	c0,7.08,0.48,13.664,1.16,20h-38.32c-1.672-6.432-2.84-13.056-2.84-20S75.751,216.584,77.423,210.152z M83.535,266.152h34.648
	c3.344,16.616,8.52,30.136,13.68,40.312C110.735,300.152,93.391,285.496,83.535,266.152z M152.255,309.92
	c-5.736-8.824-13.2-23.424-17.728-43.768h40.112c-4.52,20.328-11.976,34.928-17.728,43.768c-0.792,0.024-1.528,0.232-2.328,0.232
	S153.047,309.944,152.255,309.92z M177.311,306.464c5.168-10.192,10.336-23.696,13.672-40.312h34.648
	C215.775,285.496,198.439,300.152,177.311,306.464z M231.743,250.152h-38.312c0.672-6.336,1.152-12.92,1.152-20
	c0-7.072-0.464-13.664-1.128-20h38.288c1.672,6.432,2.84,13.056,2.84,20S233.415,243.72,231.743,250.152z"/>
<rect x="74.583" y="374.152" style="fill:#FFFFFF;" width="160" height="16"/>
<g>
	
		<rect x="333.556" y="268.409" transform="matrix(-0.2589 0.9659 -0.9659 -0.2589 707.0413 10.334)" style="fill:#010101;" width="32" height="16"/>
	
		<rect x="266.635" y="368.82" transform="matrix(-0.2588 0.9659 -0.9659 -0.2588 770.1137 162.7027)" style="fill:#010101;" width="111.997" height="16"/>
	<path style="fill:#010101;" d="M434.855,50.792L249.399,1.096C246.623,0.352,243.839,0,241.095,0
		c-14.128,0-27.056,9.432-30.888,23.728l-16.728,62.424H26.583c-8.832,0-16,7.16-16,16v320c0,8.84,7.168,16,16,16h184.8
		l111.664,29.92c2.776,0.744,5.56,1.096,8.304,1.096c14.128,0,27.056-9.432,30.888-23.728l95.248-355.464
		C462.063,72.912,451.927,55.368,434.855,50.792z M26.583,102.152h240c8.824,0,16,7.176,16,16v288c0,8.824-7.176,16-16,16h-240
		V102.152z M442.031,85.84l-95.248,355.464c-1.872,6.992-8.224,11.872-15.44,11.872c-1.392,0-2.792-0.184-4.16-0.552l-55.792-14.952
		c15.376-2.344,27.192-15.496,27.192-31.52v-126.84l8.192,2.2l8.288-30.912l-15.456-4.144l-1.024,3.824V123.128
		c4.984,1.336,10.744,2.88,16.328,4.376l18.92,61.864l13.248,3.552l-1.256-57.128c8.696,2.336,17.584,4.712,23.4,6.272
		l10.288,18.136l8.832,2.368l-1.52-25.256l13.944-21.112l-8.832-2.368L373.959,124.4c-5.824-1.56-14.704-3.936-23.408-6.272
		l29.648-48.848l-13.248-3.552l-47.32,44.112c-9.304-2.496-19.456-5.216-24.96-6.688c-5.376-10.064-15.872-17-28.088-17h-56.536
		l15.616-58.288c1.872-6.984,8.224-11.864,15.44-11.872c1.392,0,2.792,0.184,4.16,0.552L430.719,66.24
		c4.128,1.104,7.576,3.752,9.712,7.456C442.567,77.408,443.135,81.712,442.031,85.84z"/>
	
		<rect x="339.362" y="218.47" transform="matrix(-0.2558 0.9667 -0.9667 -0.2558 655.0224 -51.5718)" style="fill:#010101;" width="16" height="15.728"/>
	
		<rect x="369.764" y="226.523" transform="matrix(-0.2558 0.9667 -0.9667 -0.2558 700.9869 -70.8501)" style="fill:#010101;" width="16" height="15.728"/>
	
		<rect x="308.981" y="210.457" transform="matrix(-0.2558 0.9667 -0.9667 -0.2558 609.1239 -32.2647)" style="fill:#010101;" width="16" height="15.728"/>
</g>
<g>
</g>
<g>
</g>
<g>
</g>
<g>
</g>
<g>
</g>
<g>
</g>
<g>
</g>
<g>
</g>
<g>
</g>
<g>
</g>
<g>
</g>
<g>
</g>
<g>
</g>
<g>
</g>
<g>
</g>
</svg>
