<?xml version="1.0" encoding="iso-8859-1"?>
<!-- Generator: Adobe Illustrator 19.0.0, SVG Export Plug-In . SVG Version: 6.00 Build 0)  -->
<svg version="1.1" id="Capa_1" xmlns="http://www.w3.org/2000/svg" xmlns:xlink="http://www.w3.org/1999/xlink" x="0px" y="0px"
	 viewBox="0 0 509.287 509.287" style="enable-background:new 0 0 509.287 509.287;" xml:space="preserve">
<path style="fill:#FAD404;" d="M509.287,254.644C509.287,113.928,395.359,0,254.644,0S0,113.928,0,254.644
	c0,17.971,2.034,35.603,5.425,52.895h498.437C507.253,290.246,509.287,272.615,509.287,254.644z"/>
<path style="fill:#F8B517;" d="M5.425,307.539c24.413,115.285,126.474,201.748,249.219,201.748
	c122.405,0,224.805-86.464,249.219-201.748L5.425,307.539L5.425,307.539z"/>
<path style="fill:#FCFCFD;" d="M369.589,307.539c1.695-6.442,2.713-12.885,2.713-20.005c0-42.045-33.907-75.952-75.952-75.952
	s-75.952,33.907-75.952,75.952c0,6.781,1.017,13.563,2.713,20.005H369.589z"/>
<g>
	<path style="fill:#333842;" d="M158.686,131.899l14.58-7.46l-3.391-10.511l7.799,7.121l11.189-5.764l-1.356-7.121l5.086,4.747
		l17.293-8.816c0,0-31.534-18.649-61.372,16.954c-14.919-43.74-50.861-37.976-50.861-37.976l12.885,14.58l6.781-2.713l-3.391,6.103
		l8.138,9.494l9.833-3.73l-6.781,8.477l10.85,12.207c-38.654-25.77-63.407,1.017-63.407,1.017l18.988,3.391l3.73-6.103l0.678,7.121
		l12.207,2.374l5.425-8.816l-0.339,10.85l4.747,1.017c-38.654,19.327-32.89,54.93-32.89,54.93l17.293-15.258l-3.052-7.799
		l7.121,4.408l11.189-9.833l-4.408-11.528l9.833,8.138l19.327-16.615c-11.868,26.109-37.637,96.636-7.799,163.094h35.264
		c-32.212-48.148-24.752-120.71-18.988-154.617l7.799,14.919l12.207-4.069l-8.477,9.155l6.781,13.224l8.477-1.695l-5.764,6.103
		l10.511,20.344c0,0,18.31-31.195-10.511-63.407l4.747,1.017l3.73-10.172l1.695,10.172l12.207,2.374l3.391-6.103l1.017,7.121
		l18.988,3.73C217.685,155.974,204.122,122.066,158.686,131.899z"/>
	<path style="opacity:0.3;fill:#333842;enable-background:new    ;" d="M177.674,493.69l-3.052,2.713
		c4.747,1.356,9.155,3.052,13.902,4.069l0.339-1.017L177.674,493.69z"/>
	<path style="opacity:0.3;fill:#333842;enable-background:new    ;" d="M142.072,470.294l-19.327-16.615l-9.833,8.138l4.408-11.528
		l-11.189-9.833l-7.121,4.408l3.052-7.799l-17.293-15.258c0,0-1.695,11.868,4.069,25.77c24.074,20.683,52.217,37.298,83.073,47.809
		l1.695-4.747l-14.58-7.46c45.436,9.833,58.66-24.074,58.66-24.074l-18.988,3.73l-1.017,7.121l-3.391-6.103l-12.207,2.374
		l-1.695,10.172l-3.73-10.172l-4.747,1.017c28.821-32.212,10.511-63.407,10.511-63.407L171.91,424.18l5.764,6.103l-8.477-1.695
		l-6.781,13.224l8.477,9.155l-12.207-4.069l-7.799,14.919c-5.764-34.246-13.224-106.808,18.649-154.278h-35.264
		C104.434,373.658,130.204,444.185,142.072,470.294z"/>
</g>
<g>
	<path style="fill:#FFFFFF;" d="M364.842,437.743c0,0-18.31,5.764-47.131,0.339c-18.31-2.374-33.907,7.799-52.895,7.799
		c-21.362,1.356-47.47-3.052-47.47-3.052s32.551-0.678,47.47-2.713c11.868-2.374,29.499-6.442,31.873-7.121
		c10.172-2.713,27.126-0.678,40.35,2.713C351.619,439.099,364.842,437.743,364.842,437.743z"/>
	<path style="fill:#FFFFFF;" d="M353.314,333.648l-41.028,5.425c0,0,7.121-5.086,18.988-7.121
		C342.125,330.257,353.314,333.648,353.314,333.648z"/>
	<path style="fill:#FFFFFF;" d="M282.109,322.458c0,0-12.207,5.764-18.31,5.764c-8.477,0-13.563-2.034-21.701-2.034
		c-7.46,0-26.787,2.034-26.787,2.034s16.615-8.477,27.126-8.477c2.034,0,16.954,3.052,21.701,3.052
		C268.546,322.458,282.109,322.458,282.109,322.458z"/>
	<path style="fill:#FFFFFF;" d="M353.653,382.135c0,0-12.207,5.764-18.31,5.764c-8.477,0-13.563-2.034-21.701-2.034
		c-7.46,0-26.787,2.034-26.787,2.034s16.615-8.477,27.126-8.477c2.034,0,16.954,3.052,21.701,3.052
		C339.751,382.474,353.653,382.135,353.653,382.135z"/>
	<path style="fill:#FFFFFF;" d="M216.328,348.567c0,0,13.563,6.442,37.298,1.017s33.229,3.052,48.487,3.052
		c14.919,0,35.603-3.391,47.131-3.391c11.529,0,22.04,4.069,29.838,10.85c0,0-13.563-6.103-30.517-6.103s-25.43,5.425-46.792,5.425
		s-23.057-5.425-33.907-5.425S229.213,360.095,216.328,348.567z"/>
	<path style="fill:#FFFFFF;" d="M231.926,403.836c0,0,22.04,7.799,34.246,5.425c11.868-2.034,26.109-4.747,33.229-5.086
		c13.902-0.678,29.16,4.747,41.706,13.902c0,0-19.666-9.833-40.689-7.799c-21.362,1.695-25.091,4.747-33.907,5.086
		C257.356,415.703,237.351,409.261,231.926,403.836z"/>
	<path style="fill:#FFFFFF;" d="M199.375,465.208c0,0,37.637,8.477,52.895,7.46c15.258-1.017,32.89-5.764,44.079-7.46
		c10.85-1.695,35.264,5.425,42.723,10.172c0,0-27.804-8.816-44.079-4.069c-16.276,4.747-26.448,6.781-38.993,8.138
		C243.115,480.466,215.311,475.719,199.375,465.208z"/>
</g>
<g>
</g>
<g>
</g>
<g>
</g>
<g>
</g>
<g>
</g>
<g>
</g>
<g>
</g>
<g>
</g>
<g>
</g>
<g>
</g>
<g>
</g>
<g>
</g>
<g>
</g>
<g>
</g>
<g>
</g>
</svg>
