<?xml version="1.0" encoding="UTF-8"?>
<svg xmlns="http://www.w3.org/2000/svg" xmlns:xlink="http://www.w3.org/1999/xlink" width="512" height="512" viewBox="0 0 58 59" version="1.1"><!-- Generator: Sketch 51.3 (57544) - http://www.bohemiancoding.com/sketch --><title>024 - Paris</title><desc>Created with Sketch.</desc><defs/><g id="Page-1" stroke="none" stroke-width="1" fill="none" fill-rule="evenodd"><g id="024---Paris" fill-rule="nonzero"><path d="M32,8 L32,13 L26,13 L26,8 C26.0032402,6.89677542 26.8967754,6.0032402 28,6 L30,6 C31.1032246,6.0032402 31.9967598,6.89677542 32,8 Z" id="Shape" fill="#BDC3C7"/><path d="M29,7 C28.4477153,7 28,6.55228475 28,6 L28,1 C28,0.44771525 28.4477153,1.01453063e-16 29,0 C29.5522847,-1.01453063e-16 30,0.44771525 30,1 L30,6 C30,6.55228475 29.5522847,7 29,7 Z" id="Shape" fill="#95A5A5"/><path d="M18,6 C18,9.33 16,10.67 14.67,12 C13.33,13.33 9,17 9,17 C9,17 4.67,13.33 3.33,12 C2,10.67 0,9.33 0,6 C0,2.67 2,1 4.67,1 C4.76344642,0.998155338 4.85692325,1.0014938 4.95,1.01 C6.67353752,1.12366019 8.21100155,2.13345137 9,3.67 C9.78899845,2.13345137 11.3264625,1.12366019 13.05,1.01 C13.1430768,1.0014938 13.2365536,0.998155338 13.33,1 C16,1 18,2.67 18,6 Z" id="Shape" fill="#C03A2B"/><path d="M16.87,5.37 C16.87,8.29 15.12,9.46 13.96,10.62 C12.79,11.79 9,15 9,15 C9,15 5.21,11.79 4.04,10.62 C2.88,9.46 1.13,8.29 1.13,5.37 C1.13,2.57 2.75,1.11 4.95,1.01 C6.67353752,1.12366019 8.21100155,2.13345137 9,3.67 C9.78899845,2.13345137 11.3264625,1.12366019 13.05,1.01 C15.25,1.11 16.87,2.57 16.87,5.37 Z" id="Shape" fill="#E64C3C"/><path d="M18,23.81 C18,25.69 16.89,26.44 16.15,27.19 C15.41,27.94 13,30 13,30 C13,30 10.59,27.94 9.85,27.19 C9.11,26.44 8,25.69 8,23.81 C7.9083475,23.079231 8.14343802,22.3452133 8.64258696,21.8036656 C9.1417359,21.2621179 9.85419721,20.9680967 10.59,21 C10.6936074,21.0013591 10.7970768,21.0080346 10.9,21.02 C11.7998,21.1405063 12.5839247,21.6931276 13,22.5 C13.4160753,21.6931276 14.2002,21.1405063 15.1,21.02 C15.2029232,21.0080346 15.3063926,21.0013591 15.41,21 C16.1458028,20.9680967 16.8582641,21.2621179 17.357413,21.8036656 C17.856562,22.3452133 18.0916525,23.079231 18,23.81 Z" id="Shape" fill="#C03A2B"/><path d="M16.89,23.19 C16.8471783,24.2407602 16.3141157,25.210638 15.45,25.81 C14.87,26.4 13,28 13,28 C13,28 11.13,26.4 10.55,25.81 C9.68588432,25.210638 9.15282173,24.2407602 9.11,23.19 C9.04328271,22.6616875 9.19756992,22.1292624 9.53642108,21.7184764 C9.87527225,21.3076903 10.3686409,21.0549684 10.9,21.02 C11.7998,21.1405063 12.5839247,21.6931276 13,22.5 C13.4160753,21.6931276 14.2002,21.1405063 15.1,21.02 C15.6313591,21.0549684 16.1247278,21.3076903 16.4635789,21.7184764 C16.8024301,22.1292624 16.9567173,22.6616875 16.89,23.19 Z" id="Shape" fill="#E64C3C"/><path d="M58,6 C58,9.33 56,10.67 54.67,12 C53.33,13.33 49,17 49,17 C49,17 44.67,13.33 43.33,12 C42,10.67 40,9.33 40,6 C40,2.67 42,1 44.67,1 C44.7634464,0.998155338 44.8569232,1.0014938 44.95,1.01 C46.6735375,1.12366019 48.2110016,2.13345137 49,3.67 C49.7889984,2.13345137 51.3264625,1.12366019 53.05,1.01 C53.1430768,1.0014938 53.2365536,0.998155338 53.33,1 C56,1 58,2.67 58,6 Z" id="Shape" fill="#C03A2B"/><path d="M56.87,5.38 C56.87,8.29 55.12,9.46 53.96,10.63 C52.79,11.79 49,15 49,15 C49,15 45.21,11.79 44.04,10.63 C42.88,9.46 41.13,8.29 41.13,5.38 C41.13,2.57 42.75,1.11 44.95,1.01 C46.6735375,1.12366019 48.2110016,2.13345137 49,3.67 C49.7889984,2.13345137 51.3264625,1.12366019 53.05,1.01 C55.25,1.11 56.87,2.57 56.87,5.38 Z" id="Shape" fill="#E64C3C"/><path d="M50,23.81 C50,25.69 48.89,26.44 48.15,27.19 C47.41,27.94 45,30 45,30 C45,30 42.59,27.94 41.85,27.19 C41.11,26.44 40,25.69 40,23.81 C39.9083475,23.079231 40.143438,22.3452133 40.642587,21.8036656 C41.1417359,21.2621179 41.8541972,20.9680967 42.59,21 C42.6936074,21.0013591 42.7970768,21.0080346 42.9,21.02 C43.7998,21.1405063 44.5839247,21.6931276 45,22.5 C45.4160753,21.6931276 46.2002,21.1405063 47.1,21.02 C47.2029232,21.0080346 47.3063926,21.0013591 47.41,21 C48.1458028,20.9680967 48.8582641,21.2621179 49.357413,21.8036656 C49.856562,22.3452133 50.0916525,23.079231 50,23.81 Z" id="Shape" fill="#C03A2B"/><path d="M48.89,23.19 C48.8471783,24.2407602 48.3141157,25.210638 47.45,25.81 C46.87,26.4 45,28 45,28 C45,28 43.13,26.4 42.55,25.81 C41.6858843,25.210638 41.1528217,24.2407602 41.11,23.19 C41.0432827,22.6616875 41.1975699,22.1292624 41.5364211,21.7184764 C41.8752722,21.3076903 42.3686409,21.0549684 42.9,21.02 C43.7998,21.1405063 44.5839247,21.6931276 45,22.5 C45.4160753,21.6931276 46.2002,21.1405063 47.1,21.02 C47.6313591,21.0549684 48.1247278,21.3076903 48.4635789,21.7184764 C48.8024301,22.1292624 48.9567173,22.6616875 48.89,23.19 Z" id="Shape" fill="#E64C3C"/><rect id="Rectangle-path" fill="#95A5A5" x="22" y="13" width="14" height="4" rx="2"/><rect id="Rectangle-path" fill="#8E9295" x="26" y="11" width="6" height="2"/><polygon id="Shape" fill="#7F8C8D" points="36 31 22 31 22.71 29 23.79 26 24.86 23 25.57 21 27 17 31 17 32.43 21 33.14 23 34.21 26 35.29 29"/><rect id="Rectangle-path" fill="#95A5A5" x="18" y="31" width="22" height="4" rx="2"/><polygon id="Shape" fill="#5F696A" points="36 31 22 31 22.71 29 35.29 29"/><path d="M35,48 C35,44.6862915 32.3137085,42 29,42 C25.6862915,42 23,44.6862915 23,48 L23,55 L12,55 L12.9,53 L14.7,49 L15.6,47 L16.95,44 L17.85,42 L19.65,38 L21,35 L37,35 L38.35,38 L39.25,40 L41.05,44 L41.95,46 L43.3,49 L44.2,51 L45.1,53 L46,55 L35,55 L35,48 Z" id="Shape" fill="#7F8C8D"/><rect id="Rectangle-path" fill="#95A5A5" x="9" y="55" width="40" height="4" rx="2"/><polygon id="Shape" fill="#5F696A" points="12.9 53 23 53 23 55 12 55"/><polygon id="Shape" fill="#5F696A" points="46 55 35 55 35 53 45.1 53"/><polygon id="Shape" fill="#464F5D" points="33.14 23 24.86 23 25.57 21 32.43 21"/><polygon id="Shape" fill="#464F5D" points="34.93 28 23.07 28 23.79 26 34.21 26"/><path d="M26,39 C25.9984072,39.5516236 25.5516236,39.9984072 25,40 L18.75,40 L19.65,38 L25,38 C25.5516236,38.0015928 25.9984072,38.4483764 26,39 Z" id="Shape" fill="#464F5D"/><path d="M20,48 C19.9984072,48.5516236 19.5516236,48.9984072 19,49 L14.7,49 L15.6,47 L19,47 C19.5516236,47.0015928 19.9984072,47.4483764 20,48 Z" id="Shape" fill="#464F5D"/><path d="M22,43 C21.9984072,43.5516236 21.5516236,43.9984072 21,44 L16.95,44 L17.85,42 L21,42 C21.5516236,42.0015928 21.9984072,42.4483764 22,43 Z" id="Shape" fill="#464F5D"/><path d="M39.25,40 L35,40 C34.4477153,40 34,39.5522847 34,39 C34,38.4477153 34.4477153,38 35,38 L38.35,38 L39.25,40 Z" id="Shape" fill="#464F5D"/><path d="M41.95,46 L39,46 C38.4477153,46 38,45.5522847 38,45 C38,44.4477153 38.4477153,44 39,44 L41.05,44 L41.95,46 Z" id="Shape" fill="#464F5D"/><path d="M44.2,51 L40,51 C39.4477153,51 39,50.5522847 39,50 C39,49.4477153 39.4477153,49 40,49 L43.3,49 L44.2,51 Z" id="Shape" fill="#464F5D"/><circle id="Oval" fill="#FB7B76" cx="5" cy="4" r="2"/><circle id="Oval" fill="#FB7B76" cx="45" cy="4" r="2"/><circle id="Oval" fill="#FB7B76" cx="11" cy="23" r="1"/><circle id="Oval" fill="#FB7B76" cx="43" cy="23" r="1"/></g></g></svg>
