<?xml version="1.0" encoding="iso-8859-1"?>
<!-- Generator: Adobe Illustrator 19.0.0, SVG Export Plug-In . SVG Version: 6.00 Build 0)  -->
<svg version="1.1" id="Capa_1" xmlns="http://www.w3.org/2000/svg" xmlns:xlink="http://www.w3.org/1999/xlink" x="0px" y="0px"
	 viewBox="0 0 512.001 512.001" style="enable-background:new 0 0 512.001 512.001;" xml:space="preserve">
<g>
	<path style="fill:#FED9A8;" d="M155.904,184.434h7.564v5.254c0,28.517,21.117,60.92,47.252,76.841l-0.002,26.353
		c0,2.474-1.613,4.66-3.978,5.389l-33.246,17.718l4.344,4.351c42.997,43.062,113.355,43.061,156.351-0.002l4.338-4.345
		l-33.27-17.721c-2.364-0.73-3.977-2.915-3.977-5.389l-0.002-26.566c26.149-15.928,47.255-48.301,47.255-76.83v-5.051h7.563
		c7.162,0,12.969-5.806,12.969-12.969v-25.401l0,0c-0.011-3.868-3.15-6.998-7.019-6.998H149.954c-3.868,0-7.007,3.13-7.018,6.998
		l0,0v25.401C142.935,178.628,148.741,184.434,155.904,184.434z"/>
	<path style="fill:#FED9A8;" d="M163.473,189.691c0,35.271,32.302,76.501,66.453,85.112c22.19,5.595,28.682,5.633,50.89,0.11
		l1.014-0.252c34.27-8.521,66.697-49.809,66.697-85.173v-66.004H163.473V189.691z"/>
</g>
<path style="fill:#F4C892;" d="M302.296,123.484v81.332c0,26.98-18.88,57.39-43.047,74.085c5.99-0.394,12.455-1.722,21.567-3.988
	l1.014-0.252c34.27-8.521,66.697-49.808,66.697-85.173v-66.004L302.296,123.484L302.296,123.484z"/>
<path style="fill:#E1EFFB;" d="M511.966,483.084l-4.705-76.976c-1.943-30.551-21.91-56.99-50.734-67.177l-123.403-43.346
	c-6.593-2.316-13.844-1.775-20.031,1.472c-11.885,6.237-33.625,16.623-57.093,22.808c-23.468-6.185-45.208-16.571-57.093-22.808
	c-6.188-3.247-13.438-3.788-20.031-1.472L55.473,338.931c-28.824,10.187-48.791,36.626-50.734,67.177l-4.705,76.976
	c-0.61,9.601,7,17.723,16.605,17.723h238.084H256h1.277h238.084C504.966,500.807,512.576,492.684,511.966,483.084z"/>
<path style="fill:#CCDFED;" d="M511.966,483.084l-0.504-8.243l-4.201-68.732c-1.943-30.551-21.91-56.99-50.734-67.177
	l-123.403-43.346c-6.593-2.316-13.844-1.775-20.031,1.472c-2.572,1.35-5.629,2.901-9.042,4.555l106.246,37.319
	c28.824,10.187,48.791,36.626,50.734,67.177l4.705,76.976c0.001,0.014,0.002,0.029,0.003,0.043c0.139,2.279-1.768,4.168-4.051,4.168
	h-204.41H256h-1.277H16.639c-7.779,0-14.246-5.329-16.101-12.454l-0.504,8.243c-0.61,9.601,7,17.723,16.605,17.723h238.084H256
	h1.277h238.084C504.966,500.807,512.576,492.684,511.966,483.084z"/>
<path style="fill:#2C5871;" d="M275.383,368.053l17.373-61.233l-0.001,0.001c-1.331,0.582-2.692,1.166-4.083,1.751
	c-0.069,0.029-0.142,0.058-0.212,0.087c-1.25,0.524-2.523,1.047-3.816,1.568c-0.388,0.156-0.784,0.31-1.175,0.466
	c-0.99,0.394-1.986,0.786-2.998,1.176c-0.502,0.193-1.011,0.384-1.518,0.576c-0.927,0.35-1.858,0.698-2.801,1.042
	c-0.559,0.204-1.119,0.406-1.683,0.607c-0.915,0.327-1.837,0.65-2.765,0.97c-0.588,0.203-1.175,0.404-1.767,0.604
	c-0.942,0.316-1.891,0.625-2.844,0.932c-0.581,0.187-1.159,0.376-1.744,0.56c-1.037,0.325-2.082,0.638-3.13,0.95
	c-0.507,0.151-1.01,0.307-1.519,0.454c-1.557,0.451-3.123,0.888-4.698,1.303c-1.563-0.412-3.116-0.845-4.662-1.292
	c-0.504-0.146-1-0.3-1.502-0.449c-1.039-0.309-2.076-0.618-3.105-0.94c-0.585-0.183-1.161-0.372-1.742-0.559
	c-0.939-0.302-1.875-0.605-2.803-0.917c-0.595-0.2-1.184-0.403-1.774-0.606c-0.909-0.313-1.811-0.627-2.708-0.947
	c-0.574-0.205-1.143-0.41-1.711-0.617c-0.908-0.331-1.807-0.665-2.701-1.001c-0.533-0.201-1.065-0.401-1.592-0.604
	c-0.933-0.358-1.852-0.718-2.766-1.081c-0.463-0.184-0.928-0.366-1.386-0.55c-1.019-0.41-2.019-0.821-3.012-1.233
	c-0.331-0.137-0.669-0.274-0.997-0.412c-1.312-0.55-2.603-1.101-3.862-1.649l17.32,61.044l0,0L216.94,500.807h78.499
	L275.383,368.053L275.383,368.053z"/>
<path style="fill:#1D4859;" d="M251.341,318.574c-0.584-0.169-1.16-0.348-1.742-0.522c-0.006-0.002-0.012-0.003-0.017-0.005
	c-0.841-0.249-1.684-0.497-2.517-0.757c-0.11-0.034-0.218-0.07-0.327-0.105c-0.757-0.237-1.503-0.483-2.253-0.726
	c-0.609-0.196-1.22-0.389-1.823-0.589c-0.161-0.054-0.319-0.109-0.478-0.163c-0.001,0-0.001,0-0.001,0
	c-0.83-0.278-1.647-0.563-2.466-0.848c-0.004-0.001-0.008-0.003-0.012-0.004c-0.464-0.16-0.933-0.318-1.393-0.48
	c-0.205-0.073-0.407-0.146-0.61-0.22c-0.001,0-0.002-0.001-0.003-0.001c-0.881-0.314-1.748-0.633-2.615-0.953
	c-0.002-0.001-0.004-0.002-0.006-0.002c-0.347-0.127-0.699-0.252-1.043-0.381c-0.236-0.088-0.468-0.178-0.703-0.267
	c-0.006-0.002-0.013-0.005-0.019-0.007c-0.901-0.339-1.787-0.681-2.671-1.025c-0.002-0.001-0.004-0.002-0.006-0.002
	c-0.262-0.102-0.53-0.201-0.79-0.303c-0.148-0.058-0.293-0.117-0.441-0.175c-0.083-0.033-0.162-0.066-0.245-0.098
	c-0.949-0.375-1.884-0.751-2.812-1.129l-0.002-0.001c-0.194-0.079-0.394-0.157-0.587-0.236c-0.06-0.025-0.119-0.049-0.179-0.074
	c-0.006-0.003-0.028-0.014-0.037-0.019c-2.005-0.824-3.975-1.649-5.863-2.472L237,368.054h38.386l0,0l17.373-61.233
	c-0.693,0.303-1.418,0.608-2.127,0.912c-0.008,0.005-0.028,0.016-0.028,0.016c-0.13,0.056-0.266,0.111-0.397,0.167
	c-0.987,0.421-1.987,0.841-3.004,1.262c-0.124,0.051-0.241,0.102-0.365,0.153c-0.084,0.035-0.168,0.07-0.253,0.105
	c-0.167,0.069-0.341,0.137-0.509,0.205c-0.001,0.001-0.003,0.001-0.004,0.002c-0.956,0.391-1.92,0.78-2.899,1.169
	c-0.001,0-0.001,0-0.002,0.001c-0.07,0.028-0.138,0.056-0.209,0.084c-0.177,0.07-0.352,0.14-0.53,0.21
	c-0.22,0.087-0.448,0.171-0.669,0.258c0,0-0.001,0.001-0.002,0.001c-0.929,0.363-1.861,0.724-2.809,1.082
	c-0.002,0.001-0.004,0.002-0.006,0.002c-0.257,0.097-0.512,0.195-0.77,0.292c-0.308,0.115-0.624,0.228-0.935,0.342
	c-0.004,0.001-0.008,0.003-0.012,0.004c-0.914,0.338-1.829,0.675-2.757,1.007c-0.207,0.075-0.413,0.15-0.623,0.225
	c-0.429,0.152-0.865,0.299-1.297,0.449c-0.003,0.001-0.005,0.002-0.008,0.003c-0.863,0.301-1.724,0.601-2.597,0.895
	c-0.001,0.001-0.003,0.001-0.004,0.001c-0.162,0.056-0.324,0.112-0.488,0.167c-0.585,0.195-1.177,0.383-1.768,0.573
	c-0.004,0.001-0.009,0.003-0.013,0.004c-0.775,0.252-1.547,0.506-2.33,0.751c-0.112,0.036-0.223,0.072-0.335,0.107
	c-0.796,0.248-1.599,0.485-2.403,0.723c-0.637,0.191-1.268,0.387-1.909,0.572c-0.058,0.017-0.115,0.035-0.173,0.052
	c-1.499,0.432-3.006,0.85-4.521,1.25c-1.503-0.396-2.998-0.81-4.485-1.239C251.457,318.61,251.399,318.592,251.341,318.574z"/>
<path style="fill:#FF4C4C;" d="M425.606,328.07l-72.044-25.306L264.72,456.096c-3.963,6.84-13.842,6.832-17.794-0.015
	l-88.488-153.317L86.394,328.07v172.737h339.211V328.07H425.606z"/>
<path style="fill:#F33A3A;" d="M353.561,302.764l-7.818,13.493l23.589,8.286c6.016,2.113,10.042,7.795,10.042,14.171v123.093
	c0,14.077-11.412,25.489-25.489,25.489H86.394v13.512h339.211v-13.512V328.07L353.561,302.764z"/>
<g>
	<path style="fill:#CCDFED;" d="M256.017,319.865c-23.468-6.185-45.208-16.571-57.093-22.808
		c-6.188-3.247-13.438-3.788-20.031-1.472l-20.454,7.179l35.047,60.724c2.952,2.686,62.687-43.666,62.687-43.666
		C256.121,319.836,256.069,319.852,256.017,319.865z"/>
	<path style="fill:#CCDFED;" d="M255.985,319.865c23.468-6.185,45.208-16.571,57.093-22.808c6.188-3.247,13.438-3.788,20.031-1.472
		l20.454,7.179l-35.047,60.724c-2.952,2.686-62.687-43.666-62.687-43.666C255.882,319.836,255.933,319.852,255.985,319.865z"/>
</g>
<path style="fill:#FF4C4C;" d="M363.017,46.908c0-19.725-15.99-35.715-35.715-35.715H184.698c-19.725,0-35.715,15.99-35.715,35.715
	v91.896h0.026c-0.009,0.002-0.017,0.005-0.026,0.007v1.187h214.034v-1.187c-0.009-0.002-0.017-0.005-0.026-0.007h0.026V46.908z"/>
<path style="fill:#F33A3A;" d="M363.017,46.908c0-19.725-15.99-35.715-35.715-35.715h-46.231c19.725,0,35.715,15.99,35.715,35.715
	v91.896h-0.026c0.009,0.002,0.017,0.005,0.026,0.007v1.187h46.231V46.908z"/>
<rect x="148.98" y="63.26" style="fill:#2C5871;" width="214.03" height="27.677"/>
<rect x="316.79" y="63.26" style="fill:#1D4859;" width="46.23" height="27.677"/>
<path style="fill:#2C5871;" d="M364.851,146.429H147.149c-2.226,0-4.031-1.805-4.031-4.031v-19.473c0-2.226,1.805-4.031,4.031-4.031
	h217.702c2.226,0,4.031,1.805,4.031,4.031v19.473C368.882,144.625,367.077,146.429,364.851,146.429z"/>
<path style="fill:#1D4859;" d="M364.851,118.895h-42.2v27.534h42.2c2.226,0,4.031-1.805,4.031-4.031v-19.473
	C368.882,120.7,367.077,118.895,364.851,118.895z"/>
<path style="fill:#FFFFFF;" d="M339.076,401.503c0-2.108,1.907-4.015,4.919-4.015h20.177c12.748,0,22.787,6.123,22.787,22.586v0.602
	c0,16.463-10.339,22.787-23.59,22.787h-11.243v23.289c0,2.71-3.313,4.116-6.525,4.116c-3.312,0-6.525-1.405-6.525-4.116V401.503z
	 M352.126,408.931v24.292h11.243c6.525,0,10.541-3.714,10.541-11.544v-1.205c0-7.83-4.015-11.544-10.541-11.544h-11.243V408.931z"/>
<g>
</g>
<g>
</g>
<g>
</g>
<g>
</g>
<g>
</g>
<g>
</g>
<g>
</g>
<g>
</g>
<g>
</g>
<g>
</g>
<g>
</g>
<g>
</g>
<g>
</g>
<g>
</g>
<g>
</g>
</svg>
