<svg height="512pt" viewBox="-73 0 512 512" width="512pt" xmlns="http://www.w3.org/2000/svg"><path d="m328.160156 512h-290.816406c-5.648438 0-10.226562-4.578125-10.226562-10.226562v-38.851563h311.269531v38.851563c0 5.648437-4.578125 10.226562-10.226563 10.226562zm0 0" fill="#7c8388"/><path d="m328.160156 512h-13.132812v-49.078125h23.359375v38.851563c0 5.648437-4.578125 10.226562-10.226563 10.226562zm0 0" fill="#575f64"/><path d="m357.386719 472.945312h-349.269531c-4.484376 0-8.117188-3.632812-8.117188-8.113281v-456.714843c0-4.480469 3.632812-8.11328175 8.117188-8.11328175h349.269531c4.484375 0 8.117187 3.63281275 8.117187 8.11328175v456.714843c0 4.480469-3.636718 8.113281-8.117187 8.113281zm0 0" fill="#d3d3d8"/><path d="m357.386719 472.945312h-19v-472.94140575h19c4.480469 0 8.117187 3.63281275 8.117187 8.11328175v456.714843c0 4.480469-3.636718 8.113281-8.117187 8.113281zm0 0" fill="#babac0"/><path d="m303.0625 282.070312c0 66.445313-53.863281 120.3125-120.3125 120.3125-66.445312 0-120.308594-53.867187-120.308594-120.3125 0-66.445312 53.863282-120.3125 120.308594-120.3125 66.449219 0 120.3125 53.867188 120.3125 120.3125zm0 0" fill="#7c8388"/><path d="m303.0625 282.066406c0 66.449219-53.859375 120.3125-120.3125 120.3125-20.453125 0-39.71875-5.105468-56.582031-14.121094 8.859375 2.089844 18.09375 3.1875 27.597656 3.1875 66.453125 0 120.3125-53.859374 120.3125-120.300781 0-45.996093-25.808594-85.953125-63.726563-106.195312 53.148438 12.464843 92.710938 60.167969 92.710938 117.117187zm0 0" fill="#575f64"/><path d="m264.617188 282.070312c0 45.214844-36.652344 81.867188-81.867188 81.867188-45.210938 0-81.867188-36.652344-81.867188-81.867188 0-45.214843 36.65625-81.867187 81.867188-81.867187 45.214844 0 81.867188 36.652344 81.867188 81.867187zm0 0" fill="#ececf1"/><path d="m264.617188 282.066406c0 45.21875-36.648438 81.875-81.867188 81.875-21.199219 0-40.507812-8.054687-55.039062-21.261718 9.554687 3.910156 20.019531 6.066406 30.980468 6.066406 45.210938 0 81.867188-36.660156 81.867188-81.867188 0-24.027344-10.351563-45.644531-26.84375-60.621094 29.867187 12.214844 50.902344 41.550782 50.902344 75.808594zm0 0" fill="#dfdfe5"/><path d="m365.503906 91.195312h-365.503906v-83.078124c0-4.480469 3.632812-8.11328175 8.117188-8.11328175h349.269531c4.480469 0 8.117187 3.63281275 8.117187 8.11328175zm0 0" fill="#7c8388"/><path d="m365.5 8.117188v83.074218h-27.113281v-91.191406h18.996093c4.480469 0 8.117188 3.632812 8.117188 8.117188zm0 0" fill="#575f64"/><path d="m324.929688 64.875h-122.78125c-2.855469 0-5.175782-2.316406-5.175782-5.175781v-26.238281c0-2.859376 2.316406-5.175782 5.175782-5.175782h122.78125c2.859374 0 5.175781 2.316406 5.175781 5.175782v26.238281c0 2.859375-2.316407 5.175781-5.175781 5.175781zm0 0" fill="#05e2bd"/><path d="m324.929688 64.875h-21.867188v-36.589844h21.867188c2.859374 0 5.175781 2.316406 5.175781 5.175782v26.238281c0 2.859375-2.316407 5.175781-5.175781 5.175781zm0 0" fill="#05cea7"/><path d="m147.695312 45.597656c0 10.105469-8.191406 18.292969-18.292968 18.292969-10.105469 0-18.292969-8.1875-18.292969-18.292969 0-10.101562 8.1875-18.292968 18.292969-18.292968 10.101562 0 18.292968 8.191406 18.292968 18.292968zm0 0" fill="#05e2bd"/><path d="m147.699219 45.601562c0 10.101563-8.199219 18.292969-18.304688 18.292969-8.21875 0-15.175781-5.425781-17.484375-12.890625 2.226563.964844 4.691406 1.503906 7.265625 1.503906 10.105469 0 18.292969-8.191406 18.292969-18.292968 0-1.886719-.277344-3.695313-.816406-5.40625 6.5 2.808594 11.046875 9.265625 11.046875 16.792968zm0 0" fill="#05cea7"/><path d="m81.121094 45.597656c0 10.105469-8.191406 18.292969-18.296875 18.292969-10.101563 0-18.292969-8.1875-18.292969-18.292969 0-10.101562 8.191406-18.292968 18.292969-18.292968 10.105469 0 18.296875 8.191406 18.296875 18.292968zm0 0" fill="#ef6161"/><path d="m81.125 45.601562c0 10.101563-8.199219 18.292969-18.304688 18.292969-8.21875 0-15.175781-5.425781-17.484374-12.890625 2.222656.964844 4.6875 1.503906 7.265624 1.503906 10.105469 0 18.292969-8.191406 18.292969-18.292968 0-1.886719-.28125-3.695313-.820312-5.40625 6.503906 2.808594 11.050781 9.265625 11.050781 16.792968zm0 0" fill="#ea4444"/><path d="m264.617188 282.066406c0 45.21875-36.648438 81.875-81.867188 81.875-45.214844 0-81.863281-36.65625-81.863281-81.875 0-.683594.007812-1.367187.03125-2.039062 4.78125 4.699218 8.664062 10.320312 17.960937 10.320312 15.972656 0 15.972656-16.5625 31.9375-16.5625 15.960938 0 15.960938 16.5625 31.933594 16.5625 15.964844 0 15.964844-16.5625 31.929688-16.5625 15.972656 0 15.972656 16.5625 31.933593 16.5625 9.308594 0 13.191407-5.621094 17.972657-10.320312.019531.671875.03125 1.355468.03125 2.039062zm0 0" fill="#05e2bd"/><path d="m264.617188 282.066406c0 17.679688-5.800782 35.097656-16.441407 49.222656-1.621093 2.152344-3.347656 4.222657-5.175781 6.199219-22.5625 24.410157-59.347656 33.046875-90.128906 20.734375-6.335938-2.535156-12.375-5.824218-17.9375-9.773437-2.203125-1.566407-4.8125-4.785157-7.222656-5.769531 9.554687 3.910156 20.019531 6.066406 30.980468 6.066406 37.859375 0 69.722656-25.707032 79.070313-60.613282 2.371093 1.347657 5.1875 2.214844 8.851562 2.214844 9.296875 0 13.179688-5.609375 17.972657-10.320312.019531.671875.03125 1.355468.03125 2.039062zm0 0" fill="#05cea7"/></svg>