<?xml version="1.0" encoding="iso-8859-1"?>
<!-- Generator: Adobe Illustrator 19.0.0, SVG Export Plug-In . SVG Version: 6.00 Build 0)  -->
<svg version="1.1" id="Capa_1" xmlns="http://www.w3.org/2000/svg" xmlns:xlink="http://www.w3.org/1999/xlink" x="0px" y="0px"
	 viewBox="0 0 510.675 510.675" style="enable-background:new 0 0 510.675 510.675;" xml:space="preserve">
<circle style="fill:#E6E9ED;" cx="390.987" cy="315.988" r="115.7"/>
<path style="fill:#FFFFFF;" d="M291.244,315.985c0-61.208,47.564-111.184,107.721-115.302c-2.65-0.18-5.283-0.401-7.979-0.401
	c-63.896,0-115.7,51.803-115.7,115.703c0,63.896,51.804,115.699,115.7,115.699c2.696,0,5.329-0.226,7.979-0.405
	C338.809,427.165,291.244,377.186,291.244,315.985z"/>
<path style="fill:#E6E9ED;" d="M283.109,402.238v15.958c-15.405,5.268-58.972,17.236-102.059,10.216
	c-51.226-8.377-148.734-94.317-177.06-131.424l6.702-15.32c28.886,37.902,128.307,123.679,172.992,130.941
	C226.374,419.63,274.889,405.113,283.109,402.238z"/>
<g style="opacity:0.2;">
	<path d="M267.15,406.796v16.091l15.959-4.69v-15.959C280.756,403.064,275.021,404.848,267.15,406.796z"/>
</g>
<path style="fill:#FFFFFF;" d="M11.97,304.967l6.214-14.205c-2.833-3.241-5.373-6.312-7.492-9.094l-6.702,15.32
	c6.511,8.532,16.707,19.651,29.128,31.808C24.313,319.78,17.024,311.591,11.97,304.967z"/>
<path style="fill:#656D78;" d="M181.05,253.184c0,0,4.469,54.736,23.299,92.24c-24.577-27.529-35.268-60.717-39.495-78.834
	c-1.917-8.299-2.556-13.406-2.556-13.406h12.53L181.05,253.184L181.05,253.184z"/>
<g style="opacity:0.2;">
	<path d="M204.349,345.424c-18.83-37.504-23.299-92.24-23.299-92.24h-6.222h-1.757c0,0,2.852,34.578,13.469,67.602
		C191.484,329.139,197.286,337.516,204.349,345.424z"/>
</g>
<path style="fill:#E6E9ED;" d="M103.81,186.556l75.168,50.588l-4.149,5.668l-18.752,26.014c-15.721,0.32-36.464-1.355-56.334-9.42
	c-25.216-10.212-21.865-38.14-28.886-41.65h10.056L103.81,186.556z"/>
<g style="opacity:0.2;">
	<polygon points="169.72,230.913 142.276,268.554 156.076,268.826 178.978,237.144 	"/>
</g>
<polygon style="fill:#FFFFFF;" points="79.509,238.702 113.001,192.743 103.81,186.556 75.278,225.915 "/>
<path style="fill:#FC6E51;" d="M204.349,345.424c14.283,20.432,65.116,24.577,73.172,32.876c7.263,7.504,5.588,23.938,5.588,23.938
	c-8.221,2.875-56.735,17.392-99.425,10.371c-44.685-7.263-144.106-93.039-172.992-130.941c31.36-50.03,57.055-63.994,57.055-63.994
	c1.196-0.397,2.233-0.32,3.109,0.082c7.021,3.511,3.67,31.438,28.886,41.65c19.87,8.064,40.613,9.74,56.334,9.42l8.778-2.236
	C169.082,284.707,179.773,317.895,204.349,345.424z"/>
<g style="opacity:0.2;">
	<path d="M277.522,378.3c-4.48-4.612-22.18-7.948-39.471-13.512c0,0,20.435,10.349,23.509,13.512
		c7.267,7.504,5.591,23.938,5.591,23.938c-6.129,2.143-34.636,10.737-66.428,12.085c37.714,1.676,75.25-9.592,82.387-12.085
		C283.109,402.238,284.784,385.804,277.522,378.3z"/>
</g>
<g style="opacity:0.3;">
	<path style="fill:#FFFFFF;" d="M18.671,289.648c29.062-46.364,53.217-61.727,56.607-63.733c-1.231-4.067-2.396-7.146-4.422-8.159
		c-0.876-0.401-1.913-0.479-3.109-0.082c0,0-25.695,13.963-57.055,63.994c6.487,8.51,16.546,19.441,28.726,31.349
		C30.832,304.234,23.674,296.217,18.671,289.648z"/>
</g>
<g>
	<path style="fill:#656D78;" d="M339.44,385.882l21.226,40.613c-27.686-7.418-51.147-24.896-66.39-48.195L339.44,385.882z"/>
	<path style="fill:#656D78;" d="M307.6,287.895l-32.15,32.797c-0.086-1.916-0.164-3.911-0.164-5.828
		c0-27.444,9.577-52.664,25.535-72.452L307.6,287.895z"/>
	<path style="fill:#656D78;" d="M432.159,206.746l-41.174,20.583l-41.175-20.583c12.771-4.948,26.657-7.582,41.175-7.582
		C405.51,199.164,419.396,201.798,432.159,206.746z"/>
	<path style="fill:#656D78;" d="M506.685,314.863c0,1.917-0.078,3.834-0.156,5.751l-32.158-32.798l6.779-45.405
		C497.108,262.199,506.685,287.419,506.685,314.863z"/>
	<path style="fill:#656D78;" d="M442.531,385.882l45.164-7.582c-15.242,23.299-38.697,40.691-66.305,48.195L442.531,385.882z"/>
	<polygon style="fill:#656D78;" points="421.71,357.316 421.546,357.877 360.424,357.877 360.268,357.394 341.676,299.863 
		342.471,299.225 390.985,264.034 439.5,299.225 440.303,299.863 	"/>
	<polygon style="fill:#656D78;" points="260.524,142.67 167.566,80.114 94.397,180.252 187.355,242.812 	"/>
</g>
<g style="opacity:0.2;">
	<polygon points="251.266,136.44 178,236.485 187.355,242.812 260.524,142.67 	"/>
</g>
<g style="opacity:0.3;">
	<polygon style="fill:#FFFFFF;" points="176.885,86.383 167.566,80.114 94.397,180.252 103.654,186.482 	"/>
</g>
<g style="opacity:0.3;">
	<path style="fill:#FFFFFF;" d="M311.543,381.199l-17.268-2.899c15.242,23.299,38.704,40.777,66.39,48.195l-3.155-6.039
		C338.901,411.658,323.083,398.015,311.543,381.199z"/>
</g>
<g style="opacity:0.3;">
	<path style="fill:#FFFFFF;" d="M275.309,315.588c0,0.576,0.031,1.146,0.047,1.723c0.008,1.113,0.125,2.197,0.164,3.304
		l16.387-16.707c1.504-14.493,5.673-28.192,12.031-40.582l-2.969-19.948C285.01,263.139,275.402,288.237,275.309,315.588z"/>
</g>
<g style="opacity:0.3;">
	<path style="fill:#FFFFFF;" d="M390.985,200.282c-13.995,0-27.351,2.61-39.772,7.165l7.286,3.643
		c12.46-5.755,26.089-9.421,40.466-10.406C396.315,200.504,393.682,200.282,390.985,200.282z"/>
</g>
<g>
	<path style="fill:#3A3847;" d="M390.985,434.553c-10.559,0-21.117-1.411-31.364-4.208c-28.2-7.559-52.59-25.263-68.681-49.855
		c-11.704-17.728-18.437-38.346-19.48-59.603c-0.086-1.995-0.164-4.052-0.164-6.023c0-27.211,9.382-53.833,26.424-74.958
		c13.371-16.628,30.865-29.388,50.595-36.888c2.073-0.787,4.371,0.253,5.15,2.31c0.779,2.062-0.249,4.364-2.313,5.147
		c-18.405,6.997-34.73,18.903-47.222,34.438c-15.896,19.715-24.654,44.557-24.654,69.951c0,1.862,0.078,3.803,0.156,5.657
		c0.966,19.808,7.254,39.039,18.179,55.582c15.016,22.964,37.776,39.491,64.091,46.543c19.225,5.236,39.562,5.205,58.637,0
		c26.338-7.153,49.076-23.681,64.021-46.527c10.925-16.512,17.205-35.767,18.18-55.699c0.078-1.839,0.156-3.693,0.156-5.556
		c0-25.395-8.751-50.236-24.647-69.947c-12.491-15.538-28.823-27.444-47.229-34.441c-2.058-0.783-3.094-3.086-2.307-5.147
		c0.779-2.057,3.085-3.097,5.143-2.31c19.73,7.5,37.231,20.26,50.603,36.892c17.034,21.121,26.416,47.743,26.416,74.954
		c0,1.979-0.078,3.943-0.163,5.922c-1.044,21.382-7.784,42.031-19.489,59.72c-16.005,24.46-40.363,42.172-68.587,49.84
		C412.188,433.142,401.606,434.553,390.985,434.553z"/>
	<path style="fill:#3A3847;" d="M432.159,210.735c-0.476,0-0.966-0.086-1.441-0.269c-25.036-9.709-54.429-9.709-79.466,0
		c-2.057,0.787-4.363-0.223-5.158-2.279c-0.795-2.054,0.227-4.364,2.275-5.163c26.883-10.418,58.349-10.418,85.231,0
		c2.058,0.798,3.078,3.109,2.283,5.163C435.269,209.769,433.757,210.735,432.159,210.735z"/>
	<path style="fill:#3A3847;" d="M421.546,361.866h-61.122c-1.715,0-3.242-1.099-3.779-2.728l-18.764-58.045
		c-0.515-1.581,0.008-3.312,1.301-4.348l0.795-0.639l48.671-35.303c1.395-1.014,3.288-1.014,4.683,0l49.466,35.941
		c1.294,1.036,1.808,2.767,1.301,4.348l-18.592,57.445C424.975,360.191,423.276,361.866,421.546,361.866z M363.322,353.887h55.302
		l17.003-52.543l-44.642-32.377l-44.642,32.377L363.322,353.887z"/>
	<path style="fill:#3A3847;" d="M390.985,268.024c-2.206,0-3.99-1.784-3.99-3.989V227.33c0-2.205,1.784-3.99,3.99-3.99
		c2.205,0,3.989,1.785,3.989,3.99v36.705C394.975,266.239,393.191,268.024,390.985,268.024z"/>
	<path style="fill:#3A3847;" d="M390.985,231.318c-0.601,0-1.208-0.136-1.784-0.421l-41.02-20.505
		c-1.402-0.624-2.399-2.022-2.399-3.647c0-2.825,3.28-4.843,5.813-3.569l41.174,20.583c1.972,0.986,2.773,3.382,1.784,5.354
		C393.86,230.512,392.45,231.318,390.985,231.318z"/>
	<path style="fill:#3A3847;" d="M390.993,231.318c-1.466,0-2.876-0.807-3.577-2.205c-0.981-1.972-0.187-4.367,1.785-5.354
		l41.174-20.583c2.532-1.27,5.812,0.744,5.812,3.569c0,1.746-1.099,3.23-2.648,3.771l-40.77,20.38
		C392.201,231.182,391.593,231.318,390.993,231.318z"/>
	<path style="fill:#3A3847;" d="M342.471,303.214c-0.405,0-0.818-0.062-1.231-0.194l-34.87-11.33
		c-2.097-0.678-3.242-2.93-2.564-5.026c0.687-2.097,2.938-3.241,5.026-2.563l34.87,11.33c2.097,0.686,3.25,2.938,2.564,5.025
		C345.72,302.147,344.153,303.214,342.471,303.214z"/>
	<path style="fill:#3A3847;" d="M275.449,324.682c-1.013,0-2.018-0.382-2.797-1.146c-1.574-1.543-1.598-4.067-0.055-5.642
		l32.158-32.79c1.535-1.574,4.067-1.605,5.642-0.055c1.574,1.543,1.598,4.067,0.055,5.642l-32.159,32.79
		C277.514,324.276,276.478,324.682,275.449,324.682z"/>
	<path style="fill:#3A3847;" d="M307.6,291.884c-1.947,0-3.646-1.418-3.942-3.397L296.879,243c-0.327-2.178,1.177-4.208,3.358-4.535
		c2.182-0.288,4.208,1.185,4.535,3.358l6.779,45.487c0.319,2.175-1.185,4.208-3.358,4.535
		C307.99,291.868,307.795,291.884,307.6,291.884z"/>
	<path style="fill:#3A3847;" d="M339.44,389.871c-0.818,0-1.645-0.249-2.354-0.771c-1.776-1.301-2.166-3.795-0.865-5.571
		l21.601-29.571c1.278-1.792,3.779-2.205,5.563-0.928c1.792,1.278,2.205,3.771,0.928,5.564l-21.647,29.642
		C341.878,389.303,340.67,389.871,339.44,389.871z"/>
	<path style="fill:#3A3847;" d="M360.673,430.484c-1.441,0-2.828-0.779-3.545-2.143l-21.227-40.613
		c-1.013-1.956-0.265-4.363,1.691-5.385c1.948-1.021,4.363-0.265,5.384,1.691l21.227,40.613c1.021,1.956,0.265,4.363-1.691,5.385
		C361.928,430.345,361.297,430.484,360.673,430.484z"/>
	<path style="fill:#3A3847;" d="M339.447,389.871c-0.219,0-0.444-0.023-0.662-0.055l-45.164-7.581
		c-2.174-0.366-3.64-2.424-3.281-4.59c0.367-2.174,2.4-3.662,4.598-3.28l45.164,7.582c2.174,0.365,3.639,2.423,3.272,4.589
		C343.047,388.492,341.357,389.871,339.447,389.871z"/>
	<path style="fill:#3A3847;" d="M442.539,389.871c-1.231,0-2.447-0.568-3.227-1.644l-21.6-29.673
		c-1.263-1.809-0.811-4.294,0.997-5.557c1.815-1.254,4.294-0.81,5.556,0.998l0.717,1.036l20.774,28.496
		c1.302,1.784,0.903,4.278-0.873,5.571C444.175,389.622,443.349,389.871,442.539,389.871z"/>
	<path style="fill:#3A3847;" d="M442.531,389.871c-1.917,0-3.608-1.379-3.936-3.335c-0.358-2.166,1.106-4.224,3.28-4.589
		l45.164-7.582c2.151-0.382,4.224,1.106,4.59,3.28c0.366,2.166-1.099,4.224-3.272,4.59l-45.164,7.581
		C442.967,389.848,442.749,389.871,442.531,389.871z"/>
	<path style="fill:#3A3847;" d="M421.328,430.508c-1.052,0-2.096-0.405-2.867-1.223c-1.341-1.403-1.48-3.499-0.413-5.019
		l20.945-40.231c1.013-1.948,3.421-2.72,5.384-1.691c1.949,1.014,2.713,3.421,1.691,5.377l-21.141,40.621
		c-0.202,0.39-0.467,0.74-0.787,1.044C423.354,430.134,422.341,430.508,421.328,430.508z"/>
	<path style="fill:#3A3847;" d="M439.5,303.214c-1.676,0-3.242-1.067-3.787-2.751c-0.686-2.088,0.451-4.34,2.548-5.025l34.87-11.416
		c2.111-0.678,4.348,0.46,5.034,2.548c0.686,2.097-0.46,4.349-2.556,5.034l-34.863,11.416
		C440.334,303.151,439.912,303.214,439.5,303.214z"/>
	<path style="fill:#3A3847;" d="M474.378,291.806c-0.195,0-0.397-0.016-0.593-0.046c-2.182-0.328-3.686-2.354-3.358-4.535
		l6.779-45.402c0.327-2.174,2.369-3.646,4.535-3.358c2.183,0.327,3.679,2.357,3.358,4.535l-6.779,45.401
		C478.025,290.38,476.318,291.806,474.378,291.806z"/>
	<path style="fill:#3A3847;" d="M506.528,324.604c-1.036,0-2.072-0.405-2.852-1.2l-32.151-32.798
		c-1.543-1.573-1.52-4.099,0.055-5.641c1.566-1.551,4.099-1.52,5.642,0.054l32.151,32.798c1.543,1.574,1.52,4.099-0.055,5.642
		C508.547,324.222,507.533,324.604,506.528,324.604z"/>
	<path style="fill:#3A3847;" d="M208.667,434.537c-9.219,0-18.733-0.64-28.259-2.189C125.792,423.417,27.633,334.539,0.82,299.411
		c-1.337-1.753-1.002-4.255,0.752-5.595c1.749-1.348,4.258-0.99,5.591,0.756c29.485,38.626,125.642,121.91,174.531,129.896
		c45.577,7.434,91.402-7.067,100.122-10.044c2.081-0.709,4.356,0.397,5.065,2.485c0.717,2.081-0.397,4.349-2.486,5.065
		C277.172,424.445,245.372,434.537,208.667,434.537z"/>
	<path style="fill:#3A3847;" d="M208.682,418.524c-8.498,0-17.147-0.576-25.645-1.979c-45.709-7.427-145.75-93.398-175.517-132.453
		c-1.336-1.754-1.001-4.263,0.752-5.595c1.761-1.349,4.254-0.998,5.591,0.756c28.383,37.239,127.267,122.4,170.459,129.421
		c38.096,6.273,83.279-5.236,97.469-10.199c2.097-0.717,4.356,0.373,5.081,2.446c0.725,2.081-0.367,4.356-2.447,5.089
		C283.989,406.157,248.056,418.524,208.682,418.524z"/>
	<path style="fill:#3A3847;" d="M3.987,300.978c-0.533,0-1.075-0.102-1.593-0.335c-2.022-0.881-2.942-3.234-2.057-5.252l6.701-15.32
		c0.881-2.018,3.23-2.961,5.252-2.057c2.022,0.881,2.941,3.233,2.058,5.252l-6.702,15.319
		C6.991,300.089,5.526,300.978,3.987,300.978z"/>
	<path style="fill:#3A3847;" d="M10.689,285.658c-0.725,0-1.458-0.195-2.116-0.608c-1.866-1.169-2.431-3.631-1.262-5.501
		c31.555-50.338,57.444-64.789,58.532-65.381c2.739-0.974,4.819-0.889,6.674-0.039c4.079,2.038,5.493,6.865,7.286,12.978
		c2.797,9.542,6.627,22.605,21.437,28.601c19.871,8.062,40.773,9.44,54.756,9.129c2.232,0.016,4.024,1.706,4.071,3.904
		c0.043,2.205-1.707,4.028-3.908,4.075c-14.762,0.304-36.792-1.138-57.916-9.713c-18.382-7.446-23.026-23.276-26.096-33.752
		c-0.908-3.097-2.151-7.34-3.109-8.045c-0.035,0.241-24.931,14.567-54.962,62.481C13.315,284.996,12.017,285.658,10.689,285.658z"/>
	<path style="fill:#3A3847;" d="M283.109,406.228c-0.133,0-0.266-0.008-0.405-0.023c-2.19-0.218-3.787-2.174-3.569-4.364
		c0.405-4.067,0.39-15.732-4.48-20.766c-2.283-2.354-11.984-5.05-21.358-7.652c-18.939-5.268-42.507-11.82-52.216-25.707
		c-1.263-1.808-0.822-4.293,0.981-5.556c1.82-1.262,4.298-0.817,5.556,0.982c8.069,11.54,31.041,17.93,47.813,22.589
		c13.511,3.756,21.334,6.062,24.951,9.795c8.314,8.588,6.888,25.248,6.693,27.117C286.865,404.7,285.135,406.228,283.109,406.228z"
		/>
	<path style="fill:#3A3847;" d="M283.109,422.186c-2.205,0-3.99-1.784-3.99-3.989v-15.959c0-2.206,1.785-3.99,3.99-3.99
		s3.989,1.784,3.989,3.99v15.958C287.099,420.401,285.315,422.186,283.109,422.186z"/>
	<path style="fill:#3A3847;" d="M204.349,349.414c-1.095,0-2.189-0.444-2.977-1.332c-25.441-28.497-36.234-62.721-40.403-80.58
		c-1.944-8.416-2.603-13.605-2.63-13.823c-0.273-2.186,1.274-4.177,3.46-4.454c2.252-0.238,4.184,1.282,4.457,3.459
		c0.008,0.051,0.647,5.046,2.486,13.01c3.993,17.111,14.318,49.894,38.583,77.073c1.469,1.644,1.325,4.168-0.319,5.634
		C206.247,349.079,205.296,349.414,204.349,349.414z"/>
	<path style="fill:#3A3847;" d="M181.05,257.174h-18.752c-2.205,0-3.989-1.785-3.989-3.99s1.784-3.989,3.989-3.989h18.752
		c2.205,0,3.99,1.784,3.99,3.989S183.255,257.174,181.05,257.174z"/>
	<path style="fill:#3A3847;" d="M204.353,349.414c-1.461,0-2.867-0.803-3.568-2.197c-18.959-37.762-23.525-91.442-23.712-93.71
		c-0.18-2.193,1.457-4.118,3.654-4.301c2.186-0.121,4.122,1.458,4.301,3.655c0.043,0.538,4.632,54.421,22.886,90.779
		c0.989,1.964,0.194,4.364-1.777,5.354C205.565,349.281,204.953,349.414,204.353,349.414z"/>
	<path style="fill:#3A3847;" d="M171.003,326.279c-1.449,0-2.848-0.795-3.554-2.175c-1.005-1.956-0.233-4.363,1.73-5.368
		l12.288-6.305c1.944-1.013,4.364-0.233,5.369,1.73s0.233,4.363-1.73,5.369l-12.289,6.304
		C172.237,326.139,171.614,326.279,171.003,326.279z"/>
	<path style="fill:#3A3847;" d="M157.993,300.424c-1.45,0-2.848-0.795-3.557-2.174c-1.001-1.964-0.226-4.363,1.733-5.369
		l13.566-6.942c1.968-1.013,4.36-0.233,5.373,1.729c1.001,1.964,0.226,4.372-1.734,5.377l-13.566,6.943
		C159.224,300.284,158.605,300.424,157.993,300.424z"/>
	<path style="fill:#3A3847;" d="M174.825,246.802c-0.818,0-1.641-0.249-2.354-0.771c-1.776-1.301-2.162-3.795-0.861-5.575
		l4.149-5.669c1.302-1.772,3.791-2.174,5.576-0.861c1.777,1.302,2.163,3.795,0.861,5.576l-4.149,5.668
		C177.267,246.237,176.056,246.802,174.825,246.802z"/>
	<path style="fill:#3A3847;" d="M80.908,221.746c-0.818,0-1.644-0.25-2.357-0.771c-1.777-1.306-2.159-3.803-0.857-5.58l22.897-31.2
		c1.306-1.769,3.799-2.159,5.58-0.857c1.777,1.305,2.159,3.803,0.857,5.579l-22.897,31.2
		C83.347,221.181,82.135,221.746,80.908,221.746z"/>
	<path style="fill:#3A3847;" d="M94.393,184.242c-0.814,0-1.641-0.25-2.35-0.768c-1.78-1.301-2.166-3.799-0.869-5.576L164.343,77.76
		c1.301-1.785,3.799-2.167,5.576-0.869c1.78,1.301,2.166,3.799,0.869,5.575l-73.169,100.14
		C96.836,183.677,95.624,184.242,94.393,184.242z"/>
	<path style="fill:#3A3847;" d="M187.351,246.802c-0.814,0-1.64-0.249-2.349-0.768c-1.781-1.301-2.167-3.795-0.869-5.575
		l73.168-100.143c1.302-1.78,3.795-2.174,5.576-0.869c1.78,1.301,2.17,3.795,0.868,5.576l-73.168,100.142
		C189.794,246.237,188.582,246.802,187.351,246.802z"/>
	<path style="fill:#3A3847;" d="M187.351,246.802c-0.768,0-1.547-0.222-2.233-0.686l-92.942-62.549
		c-1.831-1.227-2.322-3.705-1.095-5.536c1.227-1.835,3.709-2.314,5.537-1.095l92.973,62.572c1.823,1.235,2.302,3.717,1.067,5.541
		C189.887,246.187,188.629,246.802,187.351,246.802z"/>
	<path style="fill:#3A3847;" d="M131.659,434.553H3.991c-2.205,0-3.989-1.785-3.989-3.99s1.784-3.989,3.989-3.989h127.668
		c2.206,0,3.99,1.784,3.99,3.989S133.865,434.553,131.659,434.553z"/>
</g>
<g style="opacity:0.2;">
	<path d="M490.726,315.985c0,61.2-47.563,111.18-107.72,115.294c2.649,0.18,5.291,0.405,7.979,0.405
		c63.896,0,115.699-51.803,115.699-115.699c0-63.9-51.803-115.703-115.699-115.703c-2.688,0-5.33,0.222-7.979,0.401
		C443.162,204.802,490.726,254.777,490.726,315.985z"/>
</g>
<g>
</g>
<g>
</g>
<g>
</g>
<g>
</g>
<g>
</g>
<g>
</g>
<g>
</g>
<g>
</g>
<g>
</g>
<g>
</g>
<g>
</g>
<g>
</g>
<g>
</g>
<g>
</g>
<g>
</g>
</svg>
