<?xml version="1.0" encoding="iso-8859-1"?>
<!-- Generator: Adobe Illustrator 19.0.0, SVG Export Plug-In . SVG Version: 6.00 Build 0)  -->
<svg version="1.1" id="Layer_1" xmlns="http://www.w3.org/2000/svg" xmlns:xlink="http://www.w3.org/1999/xlink" x="0px" y="0px"
	 viewBox="0 0 511.996 511.996" style="enable-background:new 0 0 511.996 511.996;" xml:space="preserve">
<rect x="170.658" y="398.338" style="fill:#434A54;" width="170.68" height="35.547"/>
<path style="fill:#656D78;" d="M383.996,426.653H127.998c-5.891,0-10.664,4.781-10.664,10.688c0,5.875,4.773,10.656,10.664,10.656
	h255.998c5.891,0,10.656-4.781,10.656-10.656C394.652,431.435,389.887,426.653,383.996,426.653z"/>
<path style="fill:#5D9CEC;" d="M21.335,394.654c-5.883,0-10.672-4.781-10.672-10.656V85.335c0-5.883,4.789-10.672,10.672-10.672
	h469.317c5.891,0,10.688,4.789,10.688,10.672v298.663c0,5.875-4.797,10.656-10.688,10.656H21.335z"/>
<g>
	<path style="fill:#656D78;" d="M490.652,63.999H21.335C9.554,63.999,0,73.546,0,85.335v298.663c0,11.78,9.554,21.343,21.335,21.343
		h469.317c11.797,0,21.344-9.562,21.344-21.343V85.335C511.996,73.546,502.449,63.999,490.652,63.999z M490.652,383.998H21.335
		V85.335h469.317V383.998z"/>
	<rect x="21.335" y="341.338" style="fill:#656D78;" width="481.52" height="45.688"/>
</g>
<path style="fill:#AAB2BC;" d="M266.662,373.342c0,5.875-4.773,10.656-10.664,10.656c-5.891,0-10.664-4.781-10.664-10.656
	c0-5.906,4.773-10.688,10.664-10.688C261.889,362.654,266.662,367.436,266.662,373.342z"/>
<polygon style="opacity:0.1;fill:#FFFFFF;enable-background:new    ;" points="359.996,341.404 277.342,341.404 341.342,85.413 
	423.996,85.413 "/>
<g>
</g>
<g>
</g>
<g>
</g>
<g>
</g>
<g>
</g>
<g>
</g>
<g>
</g>
<g>
</g>
<g>
</g>
<g>
</g>
<g>
</g>
<g>
</g>
<g>
</g>
<g>
</g>
<g>
</g>
</svg>
