<?xml version="1.0" encoding="iso-8859-1"?>
<!-- Generator: Adobe Illustrator 19.0.0, SVG Export Plug-In . SVG Version: 6.00 Build 0)  -->
<svg version="1.1" id="Capa_1" xmlns="http://www.w3.org/2000/svg" xmlns:xlink="http://www.w3.org/1999/xlink" x="0px" y="0px"
	 viewBox="0 0 464 464" style="enable-background:new 0 0 464 464;" xml:space="preserve">
<path style="fill:#D1E3EE;" d="M37.12,4h389.76C447.381,4,464,20.619,464,41.12v85.76c0,20.501-16.619,37.12-37.12,37.12H37.12
	C16.619,164,0,147.381,0,126.88V41.12C0,20.619,16.619,4,37.12,4z"/>
<g>
	<path style="fill:#88D0EF;" d="M39.28,284c-11.374,0.028-22.287-4.491-30.312-12.552c-11.942-11.983-11.909-31.378,0.074-43.32
		c5.579-5.56,13.084-8.757,20.958-8.928h0.648c8.111-0.018,15.89,3.215,21.6,8.976l0.624,0.616c3.09,3.158,3.036,8.223-0.122,11.313
		c-3.085,3.019-8.008,3.047-11.126,0.063l-0.656-0.648c-2.824-2.809-6.657-4.365-10.64-4.32
		c-8.075,0.158-14.493,6.833-14.335,14.908c0.074,3.782,1.611,7.387,4.287,10.06c10.63,10.152,27.362,10.152,37.992,0
		c8.356-8.309,13.04-19.616,13.008-31.4V194.44c0-4.418,3.582-8,8-8s8,3.582,8,8v34.296c0.048,16.027-6.319,31.407-17.68,42.712
		C61.577,279.515,50.658,284.035,39.28,284L39.28,284z"/>
	<path style="fill:#88D0EF;" d="M104,316c-4.418-0.001-7.999-3.583-7.998-8.002c0-2.121,0.843-4.154,2.342-5.654
		c19.052-18.947,29.731-44.73,29.656-71.6V204c0-4.418,3.582-8,8-8s8,3.582,8,8v26.744c0.087,31.115-12.281,60.972-34.344,82.912
		C108.156,315.156,106.122,316,104,316z"/>
	<path style="fill:#88D0EF;" d="M192,332c-4.418,0-8-3.582-8-8v-80c0-4.418,3.582-8,8-8s8,3.582,8,8v80
		C200,328.418,196.418,332,192,332z"/>
	<path style="fill:#88D0EF;" d="M192,220c-4.418,0-8-3.582-8-8v-16c0-4.418,3.582-8,8-8s8,3.582,8,8v16
		C200,216.418,196.418,220,192,220z"/>
	<path style="fill:#88D0EF;" d="M424.72,284c-11.378,0.035-22.297-4.485-30.32-12.552c-11.367-11.302-17.74-26.682-17.696-42.712
		V194.44c0-4.418,3.582-8,8-8s8,3.582,8,8v34.296c-0.032,11.784,4.652,23.091,13.008,31.4c10.63,10.152,27.362,10.152,37.992,0
		c5.697-5.725,5.675-14.984-0.05-20.681c-2.659-2.646-6.232-4.169-9.982-4.255c-3.976-0.053-7.808,1.488-10.64,4.28l-0.688,0.68
		c-3.09,3.158-8.155,3.212-11.313,0.122s-3.212-8.155-0.122-11.313c0.061-0.063,0.124-0.124,0.187-0.185l0.656-0.648
		c5.902-5.865,13.929-9.089,22.248-8.936c16.914,0.35,30.342,14.345,29.992,31.259c-0.163,7.9-3.374,15.432-8.96,21.021
		C447.002,279.529,436.089,284.036,424.72,284L424.72,284z"/>
	<path style="fill:#88D0EF;" d="M360,316c-2.122,0-4.156-0.844-5.656-2.344c-22.063-21.94-34.431-51.797-34.344-82.912V204
		c0-4.418,3.582-8,8-8s8,3.582,8,8v26.744c-0.075,26.87,10.604,52.653,29.656,71.6c3.124,3.125,3.123,8.19-0.002,11.314
		C364.155,315.157,362.121,316,360,316z"/>
	<path style="fill:#88D0EF;" d="M272,332c-4.418,0-8-3.582-8-8v-80c0-4.418,3.582-8,8-8s8,3.582,8,8v80
		C280,328.418,276.418,332,272,332z"/>
	<path style="fill:#88D0EF;" d="M272,220c-4.418,0-8-3.582-8-8v-16c0-4.418,3.582-8,8-8s8,3.582,8,8v16
		C280,216.418,276.418,220,272,220z"/>
</g>
<g>
	<path style="fill:#7D8F9F;" d="M424,140H40c-4.418,0-8-3.582-8-8s3.582-8,8-8h384c4.418,0,8,3.582,8,8S428.418,140,424,140z"/>
	<path style="fill:#7D8F9F;" d="M424,108H40c-4.418,0-8-3.582-8-8s3.582-8,8-8h384c4.418,0,8,3.582,8,8S428.418,108,424,108z"/>
</g>
<path style="fill:#FFBF41;" d="M384,36h32c8.837,0,16,7.163,16,16l0,0c0,8.837-7.163,16-16,16h-32c-8.837,0-16-7.163-16-16l0,0
	C368,43.163,375.163,36,384,36z"/>
<path style="fill:#4FB86A;" d="M328,60h-16c-4.418,0-8-3.582-8-8s3.582-8,8-8h16c4.418,0,8,3.582,8,8S332.418,60,328,60z"/>
<path style="fill:#2BB3CE;" d="M280,60h-16c-4.418,0-8-3.582-8-8s3.582-8,8-8h16c4.418,0,8,3.582,8,8S284.418,60,280,60z"/>
<g>
	<path style="fill:#88D0EF;" d="M376,428c-13.255,0-24-10.745-24-24s10.745-24,24-24s24,10.745,24,24S389.255,428,376,428z M376,396
		c-4.418,0-8,3.582-8,8s3.582,8,8,8s8-3.582,8-8S380.418,396,376,396z"/>
	<path style="fill:#88D0EF;" d="M392,460c-2.122,0-4.156-0.844-5.656-2.344L376,447.312l-10.344,10.344
		c-3.178,3.07-8.242,2.982-11.312-0.196c-2.995-3.1-2.995-8.016,0-11.116L376,424.688l21.656,21.656
		c3.124,3.125,3.123,8.19-0.002,11.314C396.155,459.157,394.121,460,392,460z"/>
	<path style="fill:#88D0EF;" d="M376,444c-4.418,0-8-3.582-8-8v-16c0-4.418,3.582-8,8-8s8,3.582,8,8v16
		C384,440.418,380.418,444,376,444z"/>
	<path style="fill:#88D0EF;" d="M376,383.312l-21.656-21.656c-3.07-3.178-2.982-8.242,0.196-11.312c3.1-2.995,8.016-2.995,11.116,0
		L376,360.688l10.344-10.344c3.178-3.07,8.242-2.982,11.312,0.196c2.995,3.1,2.995,8.016,0,11.116L376,383.312z"/>
	<path style="fill:#88D0EF;" d="M376,396c-4.418,0-8-3.582-8-8v-16c0-4.418,3.582-8,8-8s8,3.582,8,8v16
		C384,392.418,380.418,396,376,396z"/>
	<path style="fill:#88D0EF;" d="M424,428c-2.122,0-4.156-0.844-5.656-2.344L396.688,404l21.656-21.656
		c3.178-3.07,8.242-2.982,11.312,0.196c2.995,3.1,2.995,8.016,0,11.116L419.312,404l10.344,10.344
		c3.124,3.125,3.123,8.19-0.002,11.314C428.155,427.157,426.121,428,424,428z"/>
	<path style="fill:#88D0EF;" d="M408,412h-16c-4.418,0-8-3.582-8-8s3.582-8,8-8h16c4.418,0,8,3.582,8,8S412.418,412,408,412z"/>
	<path style="fill:#88D0EF;" d="M328,428c-4.418-0.001-7.999-3.583-7.998-8.002c0-2.121,0.843-4.154,2.342-5.654L332.688,404
		l-10.344-10.344c-3.07-3.178-2.982-8.242,0.196-11.312c3.1-2.995,8.016-2.995,11.116,0L355.312,404l-21.656,21.656
		C332.156,427.156,330.122,428,328,428z"/>
	<path style="fill:#88D0EF;" d="M360,412h-16c-4.418,0-8-3.582-8-8s3.582-8,8-8h16c4.418,0,8,3.582,8,8S364.418,412,360,412z"/>
	<path style="fill:#88D0EF;" d="M136,412c-13.255,0-24-10.745-24-24s10.745-24,24-24s24,10.745,24,24S149.255,412,136,412z M136,380
		c-4.418,0-8,3.582-8,8s3.582,8,8,8s8-3.582,8-8S140.418,380,136,380z"/>
	<path style="fill:#88D0EF;" d="M152,444c-2.122,0-4.156-0.844-5.656-2.344L136,431.312l-10.344,10.344
		c-3.178,3.069-8.243,2.982-11.312-0.196c-2.994-3.1-2.994-8.015,0-11.116L136,408.688l21.656,21.656
		c3.124,3.125,3.123,8.19-0.002,11.314C156.155,443.157,154.121,444,152,444L152,444z"/>
	<path style="fill:#88D0EF;" d="M136,428c-4.418,0-8-3.582-8-8v-16c0-4.418,3.582-8,8-8s8,3.582,8,8v16
		C144,424.418,140.418,428,136,428z"/>
	<path style="fill:#88D0EF;" d="M136,367.312l-21.656-21.656c-3.07-3.178-2.982-8.242,0.196-11.312c3.1-2.994,8.015-2.994,11.116,0
		L136,344.688l10.344-10.344c3.178-3.069,8.243-2.982,11.312,0.196c2.994,3.1,2.994,8.015,0,11.116L136,367.312z"/>
	<path style="fill:#88D0EF;" d="M136,380c-4.418,0-8-3.582-8-8v-16c0-4.418,3.582-8,8-8s8,3.582,8,8v16
		C144,376.418,140.418,380,136,380z"/>
	<path style="fill:#88D0EF;" d="M184,412c-2.122,0-4.156-0.844-5.656-2.344L156.688,388l21.656-21.656
		c3.178-3.069,8.243-2.982,11.312,0.196c2.994,3.1,2.994,8.015,0,11.116L179.312,388l10.344,10.344
		c3.124,3.125,3.123,8.19-0.002,11.314C188.154,411.157,186.121,412,184,412L184,412z"/>
	<path style="fill:#88D0EF;" d="M168,396h-16c-4.418,0-8-3.582-8-8s3.582-8,8-8h16c4.418,0,8,3.582,8,8S172.418,396,168,396z"/>
	<path style="fill:#88D0EF;" d="M88,412c-4.418-0.001-7.999-3.583-7.998-8.002c0-2.121,0.843-4.154,2.342-5.654L92.688,388
		l-10.344-10.344c-3.07-3.178-2.982-8.242,0.196-11.312c3.1-2.995,8.016-2.995,11.116,0L115.312,388l-21.656,21.656
		C92.156,411.156,90.122,412,88,412L88,412z"/>
	<path style="fill:#88D0EF;" d="M120,396h-16c-4.418,0-8-3.582-8-8s3.582-8,8-8h16c4.418,0,8,3.582,8,8S124.418,396,120,396z"/>
</g>
<g>
</g>
<g>
</g>
<g>
</g>
<g>
</g>
<g>
</g>
<g>
</g>
<g>
</g>
<g>
</g>
<g>
</g>
<g>
</g>
<g>
</g>
<g>
</g>
<g>
</g>
<g>
</g>
<g>
</g>
</svg>
