<svg id="Capa_1" enable-background="new 0 0 512.039 512.039" height="512" viewBox="0 0 512.039 512.039" width="512" xmlns="http://www.w3.org/2000/svg"><g><path d="m512.019 15.039v207.03c0 95.68-66.71 148.61-162.06 167.68-.97.19-1.95.29-2.94.29s-1.97-.1-2.94-.29c-11.62-2.32-22.81-5.15-33.29-8.41l-128.77-217.24v-149.06c0-11.61 12.67-18.82 22.65-12.9.43.25 49.01 27.9 142.35 27.9s141.92-27.65 142.4-27.93c9.921-5.89 22.6 1.24 22.6 12.93z" fill="#7ed8f6"/><g><g><g><path d="m263.494 148.456 60-30c7.41-3.705 10.413-12.715 6.708-20.125s-12.717-10.411-20.124-6.708l-60 30c-7.41 3.705-10.413 12.715-6.708 20.125 3.697 7.395 12.702 10.418 20.124 6.708z" fill="#f0f7ff"/></g></g></g><path d="m512.019 15.039v207.03c0 95.68-66.71 148.61-162.06 167.68-.97.19-1.95.29-2.94.29v-360c93.34 0 141.92-27.65 142.4-27.93 9.921-5.89 22.6 1.24 22.6 12.93z" fill="#3aaaff"/><path d="m428.02 313.279c-23.53-17.65-52.03-26.99-81-27-9 0-18.04.9-27 2.72-8.13 1.66-16.04-3.58-17.7-11.7l.53-42.27c-2.72-7.82 1.41-16.37 9.24-19.1 11.23-3.91 22.98-5.89 34.93-5.89 51.76 0 96.23 37.4 104.8 88.78 2.22 13.32-13 22.56-23.8 14.46z" fill="#f0f7ff"/><path d="m428.02 313.279c-23.53-17.65-52.03-26.99-81-27v-76.24c51.76 0 96.23 37.4 104.8 88.78 2.22 13.32-13 22.56-23.8 14.46z" fill="#dfe7f4"/><g><path d="m307.419 124.109c-.48.28-49.06 27.93-142.4 27.93-93.1 0-141.67-27.51-142.4-27.93-9.98-5.87-22.6 1.35-22.6 12.93v207.03c0 95.68 66.71 148.61 162.06 167.68.97.19 1.95.29 2.94.29s1.97-.1 2.94-.29c95.34-19.07 162.06-71.99 162.06-167.68v-207.03c.001-11.71-12.689-18.81-22.6-12.93z" fill="#fabe2c"/></g><path d="m330.02 137.039v207.03c0 95.69-66.72 148.61-162.06 167.68-.97.19-1.95.29-2.94.29v-360c93.34 0 141.92-27.65 142.4-27.93 9.91-5.88 22.6 1.22 22.6 12.93z" fill="#ff9100"/><path d="m262.81 334.229c-5.29-3.21-12.03-2.77-16.79.81-23.84 17.88-52.42 26.83-81 26.83s-57.16-8.95-81-26.83c-5.29-3.95-12.64-4.02-18 .01-4.6 3.47-6.67 9.18-5.8 14.46 8.53 51.14 52.82 88.77 104.8 88.77 51.76 0 96.23-37.4 104.8-88.77.97-5.93-1.68-12.03-7.01-15.28z" fill="#f0f7ff"/><path d="m269.82 349.509c-8.57 51.37-53.04 88.77-104.8 88.77v-76.41c28.58 0 57.16-8.95 81-26.83 4.76-3.58 11.5-4.02 16.79-.81 5.33 3.25 7.98 9.35 7.01 15.28z" fill="#dfe7f4"/><g><g><g><path d="m128.311 270.456-60-30c-7.41-3.705-10.413-12.715-6.708-20.125 3.706-7.41 12.718-10.412 20.124-6.708l60 30c7.41 3.705 10.413 12.715 6.708 20.125-3.697 7.395-12.702 10.418-20.124 6.708z" fill="#f0f7ff"/></g></g></g><g><path d="m181.627 263.736c-3.705-7.41-.702-16.42 6.708-20.125l59.977-29.989c7.411-3.705 16.419-.701 20.124 6.708s.702 16.42-6.708 20.125l-59.977 29.989c-7.42 3.709-16.424.692-20.124-6.708z" fill="#dfe7f4"/></g><g><path d="m430.311 148.456-60-30c-7.41-3.705-10.413-12.715-6.708-20.125s12.717-10.411 20.124-6.708l60 30c7.41 3.705 10.413 12.715 6.708 20.125-3.697 7.395-12.702 10.418-20.124 6.708z" fill="#dfe7f4"/></g></g></svg>