<?xml version="1.0" encoding="iso-8859-1"?>
<!-- Generator: Adobe Illustrator 19.0.0, SVG Export Plug-In . SVG Version: 6.00 Build 0)  -->
<svg version="1.1" id="Capa_1" xmlns="http://www.w3.org/2000/svg" xmlns:xlink="http://www.w3.org/1999/xlink" x="0px" y="0px"
	 viewBox="0 0 512 512" style="enable-background:new 0 0 512 512;" xml:space="preserve">
<rect x="90.33" y="195.67" style="fill:#AEADB3;" width="30" height="150.45"/>
<rect x="105.33" y="195.67" style="fill:#78777F;" width="15" height="150.45"/>
<path style="fill:#0088FF;" d="M512,389.38l-0.01,72.94l-70.75-0.01v-15l-84.26-0.01l-0.01,15l-99.29-0.01l-98.37-0.01v-15
	l-84.26-0.01v15L0,462.26l0.01-72.93c0-15.56,6.06-30.19,17.06-41.19c11.01-11,25.63-17.06,41.19-17.06c0,0,0,0,0.01,0h41.66
	l58.02-93.25l99.73,0.01l137.8,0.02l44.82,93.26h13.45c15.56,0,30.19,6.07,41.19,17.07S512,373.82,512,389.38z"/>
<path style="fill:#005ED3;" d="M512,389.38l-0.01,72.94l-70.75-0.01v-15l-84.26-0.01l-0.01,15l-99.29-0.01V237.84l137.8,0.02
	l44.82,93.26h13.45c15.56,0,30.19,6.07,41.19,17.07S512,373.82,512,389.38z"/>
<polygon style="fill:#B8E0F8;" points="440.3,331.12 407.01,331.12 257.68,331.1 135.26,331.08 99.93,331.08 157.95,237.83 
	395.48,237.86 "/>
<path style="fill:#3C3A41;" d="M174.89,454.27c-0.01,15.91-6.48,30.34-16.93,40.78c-10.44,10.45-24.87,16.92-40.78,16.92
	c-15.42,0-29.91-6.01-40.8-16.91c-10.9-10.9-16.9-25.39-16.9-40.8c0-15.42,6-29.91,16.9-40.8c10.9-10.9,25.39-16.9,40.8-16.9h0.01
	c15.41,0,29.9,6.01,40.8,16.91C168.89,424.37,174.89,438.86,174.89,454.27z"/>
<path style="fill:#171719;" d="M456.81,454.3c0,31.82-25.89,57.7-57.7,57.7c-0.01,0-0.01,0-0.01,0c-31.82,0-57.7-25.89-57.7-57.71
	c0.01-31.81,25.89-57.7,57.71-57.7c15.91,0,30.33,6.48,40.78,16.93C450.34,423.97,456.81,438.39,456.81,454.3z"/>
<g>
	<rect y="414.71" style="fill:#FFB74F;" width="30" height="47.555"/>
	<rect x="482" y="414.71" style="fill:#FFB74F;" width="30" height="47.555"/>
</g>
<polygon style="fill:#A3D9F6;" points="440.3,331.12 257.68,331.1 257.68,237.84 395.48,237.86 "/>
<polygon style="fill:#0088FF;" points="440.3,331.12 407.01,331.12 376.61,267.86 257.68,267.85 174.61,267.84 135.26,331.08 
	99.93,331.08 157.95,237.83 257.68,237.84 395.48,237.86 "/>
<polygon style="fill:#005ED3;" points="395.48,237.86 257.68,237.84 257.68,262.377 257.68,267.85 257.68,343.5 287.68,343.5 
	287.68,267.853 376.61,267.86 413.25,343.5 446.25,343.5 "/>
<path style="fill:#FFFFFF;" d="M183.67,105.33c0,43.27-35.07,78.34-78.34,78.34C62.07,183.67,27,148.6,27,105.33
	C27,62.07,62.07,27,105.33,27C148.6,27,183.67,62.07,183.67,105.33z"/>
<path style="fill:#FF0435;" d="M105.33,0C47.25,0,0,47.25,0,105.33s47.25,105.34,105.33,105.34s105.34-47.26,105.34-105.34
	S163.41,0,105.33,0z M105.33,180.67c-41.54,0-75.33-33.8-75.33-75.34S63.79,30,105.33,30s75.34,33.79,75.34,75.33
	S146.87,180.67,105.33,180.67z"/>
<path style="fill:#D9D9DB;" d="M183.67,105.33c0,43.27-35.07,78.34-78.34,78.34V27C148.6,27,183.67,62.07,183.67,105.33z"/>
<path style="fill:#C2001B;" d="M210.67,105.33c0,58.08-47.26,105.34-105.34,105.34v-30c41.54,0,75.34-33.8,75.34-75.34
	S146.87,30,105.33,30V0C163.41,0,210.67,47.25,210.67,105.33z"/>
<path style="fill:#3C3A41;" d="M115.06,53H74.21v106.25h30V126.6h10.85c20.29,0,36.8-16.51,36.8-36.8S135.35,53,115.06,53z
	 M115.06,96.6h-10.85V83h10.85c3.75,0,6.8,3.05,6.8,6.8S118.81,96.6,115.06,96.6z"/>
<path style="fill:#171719;" d="M151.86,89.8c0,20.29-16.51,36.8-36.8,36.8h-9.73v-30h9.73c3.75,0,6.8-3.05,6.8-6.8
	s-3.05-6.8-6.8-6.8h-9.73V53h9.73C135.35,53,151.86,69.51,151.86,89.8z"/>
<g>
</g>
<g>
</g>
<g>
</g>
<g>
</g>
<g>
</g>
<g>
</g>
<g>
</g>
<g>
</g>
<g>
</g>
<g>
</g>
<g>
</g>
<g>
</g>
<g>
</g>
<g>
</g>
<g>
</g>
</svg>
