<?xml version="1.0" encoding="iso-8859-1"?>
<!-- Generator: Adobe Illustrator 19.0.0, SVG Export Plug-In . SVG Version: 6.00 Build 0)  -->
<svg version="1.1" id="Layer_1" xmlns="http://www.w3.org/2000/svg" xmlns:xlink="http://www.w3.org/1999/xlink" x="0px" y="0px"
	 viewBox="0 0 512 512" style="enable-background:new 0 0 512 512;" xml:space="preserve">
<path style="fill:#465A65;" d="M338.811,241.5H173.412c-4.151,0-7.514,3.364-7.514,7.514v255.471c0,4.15,3.363,7.514,7.514,7.514
	h165.399c4.151,0,7.514-3.364,7.514-7.514V249.014C346.325,244.865,342.962,241.5,338.811,241.5z"/>
<path style="fill:#68B9D8;" d="M255.817,104.418c-0.068-0.001-0.137-0.001-0.205,0c-45.42,0.622-83.793,37.883-83.793,81.366v24.523
	c0,4.15,3.363,7.514,7.514,7.514h152.762c4.151,0,7.514-3.364,7.514-7.514v-24.523C339.609,142.302,301.237,105.04,255.817,104.418z
	"/>
<path style="fill:#3695B2;" d="M255.817,104.418c-0.068-0.001-0.137-0.001-0.205,0c-4.615,0.063-9.152,0.523-13.589,1.311
	c39.227,6.966,70.204,40.99,70.204,80.056v24.523c0,4.15-3.363,7.514-7.514,7.514h27.383c4.151,0,7.514-3.364,7.514-7.514v-24.523
	C339.609,142.302,301.237,105.04,255.817,104.418z"/>
<path style="fill:#F2464F;" d="M281.932,175.836l-10.167-40.074c-0.846-3.333-3.845-5.666-7.283-5.666h-17.535
	c-3.438,0-6.438,2.333-7.283,5.666l-10.167,40.074c-0.681,2.682,0.168,5.522,2.21,7.391l18.934,17.33
	c1.436,1.314,3.254,1.971,5.073,1.971c1.818,0,3.638-0.657,5.072-1.971l18.935-17.33
	C281.764,181.358,282.613,178.519,281.932,175.836z"/>
<path style="fill:#2E3C42;" d="M338.811,241.5H173.412c-4.151,0-7.514,3.364-7.514,7.514v25.046h180.427v-25.046
	C346.325,244.865,342.962,241.5,338.811,241.5z"/>
<path style="fill:#546F7A;" d="M358.32,202.794H153.108c-4.151,0-7.514,3.364-7.514,7.514v38.707c0,4.15,3.363,7.514,7.514,7.514
	H358.32c4.151,0,7.514-3.364,7.514-7.514v-38.707C365.834,206.158,362.471,202.794,358.32,202.794z"/>
<path style="fill:#68B9D8;" d="M90.479,390.315c-0.068-0.001-0.137-0.001-0.205,0c-48.905,0.669-90.222,40.777-90.222,87.583v26.588
	c0,4.15,3.363,7.514,7.514,7.514h165.622c4.151,0,7.514-3.364,7.514-7.514v-26.588C180.703,431.092,139.386,390.983,90.479,390.315z
	"/>
<path style="fill:#3695B2;" d="M90.479,390.315c-0.068-0.001-0.137-0.001-0.205,0c-4.549,0.062-9.032,0.467-13.422,1.185
	c42.812,7.004,76.801,43.945,76.801,86.398v26.588c0,4.15-3.363,7.514-7.514,7.514h27.05c4.151,0,7.514-3.364,7.514-7.514v-26.588
	C180.703,431.092,139.386,390.983,90.479,390.315z"/>
<path style="fill:#68B9D8;" d="M256.103,390.315c-0.068-0.001-0.137-0.001-0.205,0c-48.905,0.669-90.222,40.777-90.222,87.583
	v26.588c0,4.15,3.363,7.514,7.514,7.514h165.622c4.151,0,7.514-3.364,7.514-7.514v-26.588
	C346.325,431.092,305.008,390.983,256.103,390.315z"/>
<path style="fill:#3695B2;" d="M256.103,390.315c-0.068-0.001-0.137-0.001-0.205,0c-4.665,0.064-9.259,0.489-13.756,1.241
	c42.654,7.141,76.467,44,76.467,86.342v26.588c0,4.15-3.363,7.514-7.514,7.514h27.718c4.151,0,7.514-3.364,7.514-7.514v-26.588
	C346.325,431.092,305.008,390.983,256.103,390.315z"/>
<path style="fill:#353535;" d="M90.868,277.174h-0.982c-25.694,0-46.598,20.904-46.598,46.599v35.038
	c0,25.695,20.903,46.599,46.598,46.599h0.982c25.694,0,46.599-20.904,46.599-46.599v-35.038
	C137.467,298.077,116.563,277.174,90.868,277.174z"/>
<path style="fill:#232323;" d="M90.868,277.174h-0.982c-4.128,0-8.129,0.546-11.942,1.558c18.506,6.174,31.889,23.651,31.889,44.206
	v35.038c0,21.568-14.731,39.753-34.656,45.042c4.627,1.544,9.57,2.392,14.71,2.392h0.982c25.694,0,46.599-20.904,46.599-46.599
	v-35.038C137.467,298.077,116.563,277.174,90.868,277.174z"/>
<path style="fill:#353535;" d="M256.491,277.174h-0.982c-25.695,0-46.599,20.904-46.599,46.599v35.038
	c0,25.695,20.904,46.599,46.599,46.599h0.982c25.694,0,46.599-20.904,46.599-46.599v-35.038
	C303.09,298.077,282.185,277.174,256.491,277.174z"/>
<path style="fill:#232323;" d="M256.491,277.174h-0.982c-4.735,0-9.305,0.714-13.613,2.034
	c19.073,5.838,32.985,23.605,32.985,44.566v35.038c0,20.96-13.913,38.727-32.985,44.566c4.309,1.318,8.878,2.034,13.613,2.034h0.982
	c25.694,0,46.599-20.904,46.599-46.599v-35.038C303.09,298.077,282.185,277.174,256.491,277.174z"/>
<path style="fill:#68B9D8;" d="M421.725,390.315c-0.068-0.001-0.137-0.001-0.205,0c-48.905,0.669-90.222,40.777-90.222,87.583
	v26.588c0,4.15,3.363,7.514,7.514,7.514h165.623c4.151,0,7.514-3.364,7.514-7.514v-26.588
	C511.948,431.092,470.632,390.983,421.725,390.315z"/>
<path style="fill:#3695B2;" d="M421.725,390.315c-0.068-0.001-0.137-0.001-0.205,0c-4.529,0.062-8.993,0.464-13.365,1.176
	c42.839,6.981,76.857,43.936,76.857,86.407v26.588c0,4.15-3.363,7.514-7.514,7.514h26.937c4.151,0,7.514-3.364,7.514-7.514v-26.588
	C511.948,431.092,470.632,390.983,421.725,390.315z"/>
<path style="fill:#353535;" d="M422.114,277.174h-0.981c-25.694,0-46.599,20.904-46.599,46.599v35.038
	c0,25.695,20.904,46.599,46.599,46.599h0.981c25.695,0,46.599-20.904,46.599-46.599v-35.038
	C468.713,298.077,447.808,277.174,422.114,277.174z"/>
<path style="fill:#232323;" d="M422.114,277.174h-0.981c-4.735,0-9.305,0.714-13.613,2.034
	c19.074,5.838,32.985,23.605,32.985,44.566v35.038c0,20.96-13.912,38.727-32.985,44.566c4.309,1.318,8.878,2.034,13.613,2.034h0.981
	c25.695,0,46.599-20.904,46.599-46.599v-35.038C468.713,298.077,447.808,277.174,422.114,277.174z"/>
<path style="fill:#D3333C;" d="M239.026,138.178h33.377l12.236-28.269c-9.035-3.407-18.753-5.354-28.823-5.491
	c-0.068-0.001-0.137-0.001-0.205,0c-9.934,0.136-19.531,2.025-28.462,5.348L239.026,138.178z"/>
<path style="fill:#AF273B;" d="M270.7,105.956l-13.325,32.222h15.028l12.236-28.269C280.149,108.216,275.488,106.885,270.7,105.956z
	"/>
<path style="fill:#FFC89F;" d="M255.714,0c-24.271,0-44.017,19.745-44.017,44.017v31.413c0,24.271,19.745,44.017,44.017,44.017
	h0.001c24.271,0,44.017-19.745,44.017-44.017V44.017C299.732,19.745,279.985,0,255.714,0z"/>
<path style="fill:#F7B081;" d="M255.714,0c-4.753,0-9.328,0.766-13.619,2.167c17.623,5.75,30.398,22.332,30.398,41.85v31.413
	c0,19.519-12.774,36.101-30.398,41.85c4.291,1.4,8.866,2.167,13.619,2.167h0.001c24.271,0,44.017-19.745,44.017-44.017V44.017
	C299.732,19.745,279.985,0,255.714,0z"/>
<path d="M299.732,59.718V44.017C299.732,19.745,279.985,0,255.714,0s-44.017,19.745-44.017,44.017v15.706h7.514
	c31.905,0,43.529-21.543,43.529-21.543s8.124,21.439,29.478,21.538L299.732,59.718L299.732,59.718z"/>
<path style="fill:#D3333C;" d="M272.378,138.178h-15.002h-0.025l9.554,37.658c0.681,2.683-0.168,5.522-2.21,7.391L248.2,198.322
	l2.44,2.234c1.436,1.314,3.254,1.971,5.073,1.971c1.818,0,3.638-0.657,5.072-1.971l18.935-17.33c2.042-1.868,2.891-4.708,2.21-7.391
	L272.378,138.178z"/>
<g>
</g>
<g>
</g>
<g>
</g>
<g>
</g>
<g>
</g>
<g>
</g>
<g>
</g>
<g>
</g>
<g>
</g>
<g>
</g>
<g>
</g>
<g>
</g>
<g>
</g>
<g>
</g>
<g>
</g>
</svg>
